<svg xmlns="http://www.w3.org/2000/svg" xmlns:xlink="http://www.w3.org/1999/xlink" width="986.001" height="336.902" viewBox="0 0 986.001 336.902">
  <defs>
    <filter id="shadow" x="23.001" y="0" width="819" height="336.902" filterUnits="userSpaceOnUse">
      <feOffset input="SourceAlpha"/>
      <feGaussianBlur stdDeviation="20" result="blur"/>
      <feFlood flood-color="#13293d" flood-opacity="0.251"/>
      <feComposite operator="in" in2="blur"/>
      <feComposite in="SourceGraphic"/>
    </filter>
    <filter id="Rectangle_4" x="602.001" y="114" width="310" height="150" filterUnits="userSpaceOnUse">
      <feOffset input="SourceAlpha"/>
      <feGaussianBlur stdDeviation="20" result="blur-2"/>
      <feFlood flood-color="#1599fc"/>
      <feComposite operator="in" in2="blur-2"/>
      <feComposite in="SourceGraphic"/>
    </filter>
  </defs>
  <g id="ticket" transform="translate(-598.999 -342)">
    <g id="bg">
      <g transform="matrix(1, 0, 0, 1, 599, 342)" filter="url(#shadow)">
        <rect id="shadow-2" data-name="shadow" width="699" height="216.902" rx="5" transform="translate(83 60)" fill="#fff"/>
      </g>
      <g id="ticket-2" data-name="ticket">
        <path id="Subtraction_1" data-name="Subtraction 1" d="M179.186,292.9H5a5.006,5.006,0,0,1-5-5V5A5.006,5.006,0,0,1,5,0H179.186c-.006.133-.01.272-.01.415,0,6.177,6.421,11.2,14.313,11.2S207.8,6.591,207.8.415c0-.139,0-.278-.01-.415H981a5.006,5.006,0,0,1,5,5V287.9a5.005,5.005,0,0,1-5,5H207.793a10.239,10.239,0,0,0-4.359-7.641,17.294,17.294,0,0,0-19.89,0,10.24,10.24,0,0,0-4.358,7.641Z" transform="translate(598.999 364)" fill="#fff"/>
        <line id="Line_8" data-name="Line 8" y2="268" transform="translate(792.5 377.5)" fill="none" stroke="#d9d9d9" stroke-linecap="square" stroke-width="1" stroke-dasharray="3"/>
        <path id="Rectangle_49" data-name="Rectangle 49" d="M0,0H32a5,5,0,0,1,5,5V288a5,5,0,0,1-5,5H0a0,0,0,0,1,0,0V0A0,0,0,0,1,0,0Z" transform="translate(1548 364)" fill="#1599fc"/>
      </g>
    </g>
    <g id="logo" transform="translate(464.912 680.393) rotate(-90)">
      <g id="Group_9" data-name="Group 9" transform="translate(83.886 256.063)">
        <path id="Path_93" data-name="Path 93" d="M96.949,383.369v16.594h-2.08v-2.348a4.706,4.706,0,0,1-1.8,1.822,5.255,5.255,0,0,1-2.628.637,5.648,5.648,0,0,1-2.963-.771,5.3,5.3,0,0,1-2-2.147,6.707,6.707,0,0,1-.716-3.142,6.527,6.527,0,0,1,.716-3.1,5.262,5.262,0,0,1,2-2.113,5.671,5.671,0,0,1,2.941-.76,5.446,5.446,0,0,1,2.661.626,4.453,4.453,0,0,1,1.789,1.811v-7.111Zm-4.014,14.38a3.768,3.768,0,0,0,1.42-1.5,4.525,4.525,0,0,0,.514-2.169,4.575,4.575,0,0,0-.514-2.192,3.77,3.77,0,0,0-1.42-1.5,3.981,3.981,0,0,0-2.069-.537,3.917,3.917,0,0,0-2.068.548,3.849,3.849,0,0,0-1.42,1.509,4.831,4.831,0,0,0,0,4.338,3.767,3.767,0,0,0,1.42,1.5,4.256,4.256,0,0,0,4.137,0Z" transform="translate(-84.761 -383.235)" fill="#1599fc"/>
        <path id="Path_94" data-name="Path 94" d="M132.6,396.657a6.648,6.648,0,0,1,1.409,4.506q0,.448-.023.671h-9.347a4.03,4.03,0,0,0,1.33,2.527,3.938,3.938,0,0,0,2.672.939,5.008,5.008,0,0,0,1.957-.38,4.7,4.7,0,0,0,1.576-1.074l1.141,1.185a5.971,5.971,0,0,1-2.1,1.454,7,7,0,0,1-2.728.515,6.285,6.285,0,0,1-3.1-.75,5.256,5.256,0,0,1-2.1-2.113,6.346,6.346,0,0,1-.75-3.109,6.281,6.281,0,0,1,.75-3.1,5.453,5.453,0,0,1,2.091-2.124,6.034,6.034,0,0,1,3.064-.772A5.214,5.214,0,0,1,132.6,396.657Zm-.47,3.567a3.428,3.428,0,0,0-3.667-3.466,3.741,3.741,0,0,0-2.605.939,3.941,3.941,0,0,0-1.241,2.527Z" transform="translate(-107.333 -390.206)" fill="#1599fc"/>
        <path id="Path_95" data-name="Path 95" d="M158.373,383.369h2.08v16.594h-2.08Z" transform="translate(-128.743 -383.235)" fill="#1599fc"/>
        <path id="Path_96" data-name="Path 96" d="M175.254,385.384a1.817,1.817,0,0,0-.537,1.409v1.543h3.265v1.588h-3.265v9.84h-2.08v-9.84H171.1v-1.588h1.543v-1.275a4.178,4.178,0,0,1,.548-2.2,3.566,3.566,0,0,1,1.442-1.364,4.156,4.156,0,0,1,1.923-.458,4.6,4.6,0,0,1,2.057.537l-.492,1.7a3.571,3.571,0,0,0-1.521-.38A1.912,1.912,0,0,0,175.254,385.384Zm6.586-1.789a1.438,1.438,0,0,1,0,1.923,1.324,1.324,0,0,1-1.856,0,1.438,1.438,0,0,1,0-1.923,1.323,1.323,0,0,1,1.856,0Zm-1.957,4.338h2.08v11.83h-2.08Z" transform="translate(-136.227 -383.036)" fill="#1599fc"/>
        <path id="Path_97" data-name="Path 97" d="M217.843,388.826a5.226,5.226,0,0,1,2.013,2.124,7.186,7.186,0,0,1,.011,6.228,5.107,5.107,0,0,1-1.99,2.1,5.733,5.733,0,0,1-2.941.749,5.394,5.394,0,0,1-2.639-.626,4.493,4.493,0,0,1-1.789-1.789v2.348h-2.08V383.369h2.08v7.111a4.511,4.511,0,0,1,1.778-1.789,5.283,5.283,0,0,1,2.605-.626A5.73,5.73,0,0,1,217.843,388.826Zm-1.308,8.856a3.693,3.693,0,0,0,1.409-1.5,4.612,4.612,0,0,0,.5-2.17,4.482,4.482,0,0,0-.514-2.147,3.794,3.794,0,0,0-1.409-1.5,3.874,3.874,0,0,0-2.035-.537,3.932,3.932,0,0,0-2.046.537,3.763,3.763,0,0,0-1.42,1.5,4.807,4.807,0,0,0,0,4.327,3.785,3.785,0,0,0,1.42,1.487,4.168,4.168,0,0,0,4.092,0Z" transform="translate(-158.481 -383.235)" fill="#1599fc"/>
        <path id="Path_98" data-name="Path 98" d="M255.686,395.2v11.83h-2.1v-2.5A4.448,4.448,0,0,1,249.2,407.1a4.238,4.238,0,0,1-3.221-1.219,4.675,4.675,0,0,1-1.162-3.365V395.2h2.1v6.753a3.208,3.208,0,0,0,.816,2.337,2.99,2.99,0,0,0,2.247.838,3.324,3.324,0,0,0,2.628-1.174,4.4,4.4,0,0,0,.973-2.941V395.2Z" transform="translate(-180.175 -390.306)" fill="#1599fc"/>
        <path id="Path_99" data-name="Path 99" d="M284.457,396.971a5.815,5.815,0,0,0-1.689-.268,2.888,2.888,0,0,0-1.509.346,1.158,1.158,0,0,0-.57,1.063,1.181,1.181,0,0,0,.638,1.084,9.243,9.243,0,0,0,1.934.749,15.124,15.124,0,0,1,2.013.716,3.577,3.577,0,0,1,1.331,1.051,3.257,3.257,0,0,1-.716,4.383,5.4,5.4,0,0,1-3.142.872,7.851,7.851,0,0,1-2.561-.425,5.814,5.814,0,0,1-2.091-1.208l.783-1.521a5.537,5.537,0,0,0,1.823,1.074,6.053,6.053,0,0,0,2.113.4,3.162,3.162,0,0,0,1.655-.38,1.267,1.267,0,0,0,.626-1.163,1.323,1.323,0,0,0-.66-1.208,8.983,8.983,0,0,0-2-.805,13.372,13.372,0,0,1-1.935-.682,3.424,3.424,0,0,1-1.274-1.018,2.744,2.744,0,0,1-.526-1.744,2.81,2.81,0,0,1,1.208-2.482,5.221,5.221,0,0,1,3.019-.827,7.541,7.541,0,0,1,2.113.3,6.351,6.351,0,0,1,1.8.816l-.76,1.588A7.1,7.1,0,0,0,284.457,396.971Z" transform="translate(-200.016 -390.173)" fill="#1599fc"/>
        <path id="Path_100" data-name="Path 100" d="M307.187,419.062a1.263,1.263,0,0,1,.347.917,1.3,1.3,0,0,1-.347.928,1.134,1.134,0,0,1-.861.369,1.168,1.168,0,0,1-.872-.369,1.279,1.279,0,0,1-.358-.928,1.24,1.24,0,0,1,.358-.917,1.186,1.186,0,0,1,.872-.358A1.152,1.152,0,0,1,307.187,419.062Z" transform="translate(-216.124 -404.347)" fill="#1599fc"/>
        <path id="Path_101" data-name="Path 101" d="M322.122,396.892a4.115,4.115,0,0,0-2.069.514,3.653,3.653,0,0,0-1.42,1.454,4.44,4.44,0,0,0-.515,2.169,4.524,4.524,0,0,0,.5,2.169,3.7,3.7,0,0,0,1.387,1.465,3.881,3.881,0,0,0,2.023.526,5.316,5.316,0,0,0,2.057-.381,3.91,3.91,0,0,0,1.521-1.1l1.185,1.208a5.229,5.229,0,0,1-2.046,1.543,7.005,7.005,0,0,1-2.806.537,6.1,6.1,0,0,1-3.064-.761,5.372,5.372,0,0,1-2.091-2.113,6.281,6.281,0,0,1-.749-3.1,6.345,6.345,0,0,1,.749-3.108,5.36,5.36,0,0,1,2.091-2.125,6.106,6.106,0,0,1,3.064-.76,7.491,7.491,0,0,1,2.695.458,5.218,5.218,0,0,1,2,1.331l-1.14,1.431A4.685,4.685,0,0,0,322.122,396.892Z" transform="translate(-222.632 -390.206)" fill="#1599fc"/>
        <path id="Path_102" data-name="Path 102" d="M355.21,395.8a5.476,5.476,0,0,1,2.147,2.113,6.625,6.625,0,0,1,0,6.206,5.447,5.447,0,0,1-2.147,2.124,6.915,6.915,0,0,1-6.306,0,5.463,5.463,0,0,1-2.147-2.113,6.65,6.65,0,0,1,0-6.217A5.471,5.471,0,0,1,348.9,395.8a6.918,6.918,0,0,1,6.306,0ZM350,397.384a3.716,3.716,0,0,0-1.409,1.487,4.543,4.543,0,0,0-.5,2.158,4.658,4.658,0,0,0,.5,2.192A3.614,3.614,0,0,0,350,404.708a4.044,4.044,0,0,0,2.069.526,4,4,0,0,0,2.046-.526,3.611,3.611,0,0,0,1.409-1.487,4.659,4.659,0,0,0,.5-2.192,4.545,4.545,0,0,0-.5-2.158,3.713,3.713,0,0,0-1.409-1.487,3.939,3.939,0,0,0-2.046-.537A3.984,3.984,0,0,0,350,397.384Z" transform="translate(-240.481 -390.206)" fill="#1599fc"/>
        <path id="Path_103" data-name="Path 103" d="M401.844,396.266a4.686,4.686,0,0,1,1.163,3.354v7.313h-2.1v-6.754a3.25,3.25,0,0,0-.816-2.348,2.97,2.97,0,0,0-2.247-.85,3.4,3.4,0,0,0-2.639,1.185,4.386,4.386,0,0,0-.962,2.93v5.837h-2.1v-6.754a3.277,3.277,0,0,0-.805-2.348,2.962,2.962,0,0,0-2.259-.85,3.432,3.432,0,0,0-2.65,1.185,4.359,4.359,0,0,0-.973,2.93v5.837h-2.08V395.1h2.08v2.482a4.472,4.472,0,0,1,4.406-2.549,4.525,4.525,0,0,1,2.717.783,3.838,3.838,0,0,1,1.464,2.191q1.1-2.93,4.607-2.974A4.19,4.19,0,0,1,401.844,396.266Z" transform="translate(-262.748 -390.206)" fill="#1599fc"/>
        <path id="Path_104" data-name="Path 104" d="M441.13,419.062a1.264,1.264,0,0,1,.347.917,1.3,1.3,0,0,1-.347.928,1.135,1.135,0,0,1-.861.369,1.169,1.169,0,0,1-.872-.369,1.278,1.278,0,0,1-.358-.928,1.24,1.24,0,0,1,.358-.917,1.187,1.187,0,0,1,.872-.358A1.152,1.152,0,0,1,441.13,419.062Z" transform="translate(-295.894 -404.347)" fill="#1599fc"/>
        <path id="Path_105" data-name="Path 105" d="M462.74,395.2v11.83h-2.1v-2.5a4.449,4.449,0,0,1-4.383,2.572,4.237,4.237,0,0,1-3.22-1.219,4.675,4.675,0,0,1-1.163-3.365V395.2h2.1v6.753a3.209,3.209,0,0,0,.816,2.337,2.991,2.991,0,0,0,2.247.838,3.324,3.324,0,0,0,2.628-1.174,4.4,4.4,0,0,0,.973-2.941V395.2Z" transform="translate(-303.561 -390.306)" fill="#1599fc"/>
        <path id="Path_106" data-name="Path 106" d="M494.656,406.933v-1.655a4.852,4.852,0,0,1-4.137,1.745,4.715,4.715,0,0,1-2.158-.47,3.454,3.454,0,0,1-1.431-1.3,3.5,3.5,0,0,1-.5-1.856,3.037,3.037,0,0,1,1.174-2.516,5.256,5.256,0,0,1,3.276-.95h3.757v-.559a2.446,2.446,0,0,0-.771-1.934,3.3,3.3,0,0,0-2.248-.682,6.435,6.435,0,0,0-3.645,1.275L487.1,396.6a10.808,10.808,0,0,1,2.359-1.2,8.052,8.052,0,0,1,2.583-.369,4.947,4.947,0,0,1,3.421,1.085,3.928,3.928,0,0,1,1.23,3.03l.023,7.783Zm-1.241-2.337a2.778,2.778,0,0,0,1.219-1.867v-1.185h-3.466a4.045,4.045,0,0,0-2.091.425,1.465,1.465,0,0,0-.682,1.342,1.742,1.742,0,0,0,.693,1.453,2.953,2.953,0,0,0,1.856.537A4.232,4.232,0,0,0,493.415,404.6Z" transform="translate(-324.207 -390.206)" fill="#1599fc"/>
      </g>
      <g id="Group_10" data-name="Group 10" transform="translate(83.297 170.183)">
        <path id="Path_107" data-name="Path 107" d="M128.662,307.346c.086-.384.143-.758-.335-.69,0,0-.564,0-1.133.056-.181.018-.6.052-.8.065-1.361.094-2.721.188-4.081.3-.775.065-1.546.19-2.321.244a1.952,1.952,0,0,0-1.71,1.11c-.136.259-.279.514-.423.768a2.341,2.341,0,0,1-2.416,1.284,2.042,2.042,0,0,1-1.8-1.13,6.325,6.325,0,0,0-.365-.688,1.271,1.271,0,0,0-1.414-.622c-.251.058-.517.043-.774.077-1.325.176-2.649.356-4.06.546a.486.486,0,0,0-.4.629,9.25,9.25,0,0,0,.353.964c.478,1.055.693,2.286,1.711,3a4.07,4.07,0,0,0,1.65.721,17.8,17.8,0,0,0,3.109.186c1.457-.034,2.913-.158,4.367-.282,1.52-.13,3.014-.2,4.534-.328a2.912,2.912,0,0,0,2.625-1,17.916,17.916,0,0,0,3.559-4.946A1.132,1.132,0,0,0,128.662,307.346Z" transform="translate(-97.229 -251.718)" fill="#1599fc"/>
        <path id="Path_108" data-name="Path 108" d="M125.742,311.417a.882.882,0,0,0,.281.723,1.714,1.714,0,0,0,2.758-.968c-.389-.163-.791-.35-1.207-.5C127.2,310.537,125.831,311.052,125.742,311.417Z" transform="translate(-108.651 -254.11)" fill="#1599fc"/>
        <path id="Path_109" data-name="Path 109" d="M131.629,306.683a2.6,2.6,0,0,0-.757-2.361.818.818,0,0,0-.671-.229c-.149.043-.281.384-.3.6C129.8,305.981,130.155,306.393,131.629,306.683Z" transform="translate(-111.132 -250.183)" fill="#1599fc"/>
        <path id="Path_110" data-name="Path 110" d="M124.861,306.914a1.6,1.6,0,0,0,.922-1.185c.051-.411.088-.825.134-1.258a2,2,0,0,0-1.762,2.094C124.214,306.963,124.494,307.124,124.861,306.914Z" transform="translate(-107.699 -250.417)" fill="#1599fc"/>
        <path id="Path_111" data-name="Path 111" d="M252.7,242.04a2.641,2.641,0,0,1-.812-1.929,20.735,20.735,0,0,0-.429-3.373,6.016,6.016,0,0,0-1.891-3.646c-1.051-.825-2.059-1.706-3.135-2.5-2.416-1.777-4.873-3.5-7.288-5.279a6.835,6.835,0,0,1-1.276-1.321c-.479-.614-1.21-1.382-1.727-1.957-1.7-1.89-3.063-3.7-4.8-5.557-.387-.416-.958-.7-.93-1.413,0-.122-.236-.29-.4-.373a5.471,5.471,0,0,0-.9-.364,48.067,48.067,0,0,0-13.822-2.345c-.717,0-1.434-.1-2.151-.108-1.632-.01-3.272-.084-4.895.045a12.685,12.685,0,0,0-3.54.828,37.334,37.334,0,0,0-24.369-26.036,36.737,36.737,0,0,0-5.33-1.328,21.616,21.616,0,0,1,2.063,2.071c.928.225,1.847.481,2.755.784a35.708,35.708,0,0,1,23.489,42.193,6.217,6.217,0,0,0-4.845.936,32.4,32.4,0,0,1-4.634,2.775c-2.535.966-5.391.516-8.026-.15s-5.285-1.541-8-1.385c-4.309.247-8.277,3.066-12.574,2.667-4.168-.387-7.955-3.773-12.039-2.876-2.749.6-4.771,3.038-7.509,3.687-2.23.528-4.546-.212-6.716-.943l-4.46-1.5a35.708,35.708,0,0,1,25.644-46.277c.612-.145,1.229-.27,1.849-.383a16.682,16.682,0,0,1-.842-1.458c0-.006,0-.013-.008-.02-.459.09-.917.186-1.372.293a37.641,37.641,0,0,0-20.588,13.012,36.938,36.938,0,0,0-7.023,13.932,12.662,12.662,0,0,0-3.52-.82c-1.622-.129-3.263-.054-4.895-.045-.717,0-1.434.105-2.151.108a48.067,48.067,0,0,0-13.822,2.345,5.484,5.484,0,0,0-.9.364c-.16.083-.4.251-.4.373.027.71-.544,1-.931,1.413-1.733,1.862-3.094,3.667-4.8,5.557-.518.575-1.249,1.342-1.728,1.957a6.835,6.835,0,0,1-1.276,1.321c-2.415,1.78-4.871,3.5-7.287,5.279-1.076.791-2.084,1.673-3.135,2.5a6.016,6.016,0,0,0-1.891,3.646,20.777,20.777,0,0,0-.429,3.373,2.641,2.641,0,0,1-.812,1.929,9.945,9.945,0,0,0-.894,3.986,20.97,20.97,0,0,0,.565,2.95c.069.314.265.606.309.921.225,1.616,1.35,2.218,2.773,2.422.932.134,1.883.144,2.827.194.388.021.779,0,1.267,0a4.52,4.52,0,0,0,.286,4.394c.359.7,1.379,2.56,2.091,2.7a21.894,21.894,0,0,0,3.254,0c.086.02,2.087-.3,1.325-1.925l3.2-.051c.523-.008,1.047-.015,1.569-.035,1.435-.056,2.869-.153,4.3-.169.977-.011,1.955.1,2.933.13,1.274.037,2.55.028,3.825.07q5.581.184,11.161.394c1.469.053,2.938.094,4.4.177,1.076.061,2.1.249,2.479,1.5a.776.776,0,0,0,.46.432,12.827,12.827,0,0,0,2.928.349,3.9,3.9,0,0,0,2.577-.633,2.91,2.91,0,0,1,2.58-.871,2.079,2.079,0,0,0,.546-.051l0-.085-1.723-.335c.085-.377.129-.66.214-.931.3-.968.415-1.049,1.438-.984q1.8.114,3.6.266c.9.077.978.177,1.222,1.094.178.669.522,1.235,1.3,1.265a25.736,25.736,0,0,0,4.2.02c.636-.081,1.251-.759,1.762-1.278a3.371,3.371,0,0,0,.835-1.458,37.558,37.558,0,0,0,29.277,0,3.371,3.371,0,0,0,.836,1.458c.51.519,1.126,1.2,1.762,1.278a25.735,25.735,0,0,0,4.2-.02c.779-.03,1.123-.6,1.3-1.265.244-.917.321-1.017,1.222-1.094q1.8-.154,3.6-.266c1.023-.065,1.134.016,1.438.984.085.271.129.554.214.931l-1.723.335,0,.085a2.079,2.079,0,0,0,.546.051,2.911,2.911,0,0,1,2.581.871,3.9,3.9,0,0,0,2.577.633,12.83,12.83,0,0,0,2.928-.349.775.775,0,0,0,.459-.432c.383-1.249,1.4-1.437,2.479-1.5,1.467-.083,2.936-.124,4.4-.177q5.58-.2,11.161-.394c1.274-.042,2.55-.033,3.825-.07.978-.029,1.956-.141,2.933-.13,1.435.017,2.869.113,4.3.169.523.021,1.046.027,1.569.035l3.2.051c-.762,1.627,1.24,1.945,1.325,1.925a21.894,21.894,0,0,0,3.254,0c.712-.145,1.732-2.009,2.091-2.7a4.521,4.521,0,0,0,.286-4.394c.488,0,.878.017,1.267,0,.943-.051,1.894-.061,2.827-.194,1.423-.2,2.548-.806,2.773-2.422.044-.315.241-.606.309-.921a20.919,20.919,0,0,0,.565-2.95A9.946,9.946,0,0,0,252.7,242.04Zm-43.984-28.634q4.705.031,9.408.217c1.4.054,2.793.248,4.182.431a26.553,26.553,0,0,1,6.8,2.088c.363.154.819.265.905.943-.372-.079-.67-.131-.962-.205-1.417-.361-2.835-.717-4.247-1.094a30.21,30.21,0,0,0-5.376-.8c-.726-.06-1.5-.027-2.249-.027a14.3,14.3,0,0,0-2.352-.028,4.317,4.317,0,0,1-.919-.026h-.017c-.057-.005-.116-.008-.175-.012a18.381,18.381,0,0,0-7.124.87,28.706,28.706,0,0,1,6.4.656L213,216.4l.04.046a13.569,13.569,0,0,0-4.776.777,28.734,28.734,0,0,1,6.4.657l.019-.024.1.084a13.578,13.578,0,0,0-5.161.764,28.689,28.689,0,0,1,6.4.657h0l.011.013a13.543,13.543,0,0,0-4.351.778,28.676,28.676,0,0,1,5.339.457,13.449,13.449,0,0,0-3.086.7,28.684,28.684,0,0,1,5.358.461,13.535,13.535,0,0,0-3.952.764,28.723,28.723,0,0,1,5.912.566,13.5,13.5,0,0,0-3.438.734,41.88,41.88,0,0,1,6.218.482c.087.016.174.03.26.05.344.077.684.135,1.02.185l.044.009v0a54.794,54.794,0,0,1,6.376.783c.794.2,1.568.464,2.365.643,2.533.567,5.014,1.232,7.05,2.939.6.5,1.257.933,1.872,1.417s1.194.983,1.79,1.476a.659.659,0,0,1-.459.068c-2.147-.37-4.287-.779-6.441-1.1-1.8-.27-3.62-.443-5.431-.654-2.071-.242-4.109-.6-6.217-.68-4.751-.18-9.51.092-14.265.178a8.306,8.306,0,0,0-1.886.254c-1.785.452-3.577.89-5.337,1.425a37.26,37.26,0,0,0,.274-17.168A9.758,9.758,0,0,1,208.716,213.405Zm-4.456,21.179-.548.148q.089-.247.175-.495A1.158,1.158,0,0,1,204.26,234.584Zm-71.253-.347q.086.248.175.495l-.548-.148A1.159,1.159,0,0,1,133.008,234.238Zm-39.122-3.9c.615-.484,1.273-.915,1.872-1.417,2.035-1.707,4.517-2.372,7.05-2.939.8-.179,1.571-.448,2.365-.643a54.793,54.793,0,0,1,6.376-.783v0l.044-.009c.337-.05.676-.108,1.021-.185.086-.019.174-.034.26-.05a41.871,41.871,0,0,1,6.217-.482,13.5,13.5,0,0,0-3.438-.734,28.723,28.723,0,0,1,5.912-.566,13.536,13.536,0,0,0-3.952-.764,28.684,28.684,0,0,1,5.358-.461,13.444,13.444,0,0,0-3.086-.7,28.676,28.676,0,0,1,5.339-.457,13.542,13.542,0,0,0-4.35-.778l.011-.013h0a28.692,28.692,0,0,1,6.4-.657,13.578,13.578,0,0,0-5.161-.764l.1-.084.019.024a28.733,28.733,0,0,1,6.4-.657,13.569,13.569,0,0,0-4.776-.777l.04-.046.009.014a28.706,28.706,0,0,1,6.4-.656,18.373,18.373,0,0,0-7.124-.87c-.059,0-.118.007-.175.012h-.017a4.317,4.317,0,0,1-.919.026,14.3,14.3,0,0,0-2.352.028c-.752,0-1.523-.033-2.249.027a30.214,30.214,0,0,0-5.377.8c-1.412.377-2.83.733-4.247,1.094-.292.074-.59.126-.962.205.086-.678.543-.789.905-.943a26.561,26.561,0,0,1,6.8-2.088c1.389-.183,2.784-.376,4.182-.431q4.7-.182,9.408-.217a9.765,9.765,0,0,1,3.664.721,37.634,37.634,0,0,0-.856,8.009,37.18,37.18,0,0,0,1.144,9.169c-1.76-.535-3.552-.973-5.337-1.425a8.307,8.307,0,0,0-1.886-.254c-4.755-.087-9.514-.358-14.265-.178-2.107.08-4.145.438-6.217.68-1.811.211-3.629.384-5.431.654-2.154.323-4.294.731-6.44,1.1a.66.66,0,0,1-.46-.068C92.692,231.322,93.279,230.818,93.886,230.339Zm-3.239,19.308c.514-.811.934-1.419,1.294-2.06a.951.951,0,0,1,.919-.554c1.043-.019,2.084-.132,3.127-.154q6.318-.132,12.637-.228c.251,0,.5.045.871.08a7.368,7.368,0,0,1-.225,1.075,14.159,14.159,0,0,0-.586,1.3.779.779,0,0,1-.878.685c-1.631.021-3.262.122-4.892.116-3.329-.014-6.659-.074-9.988-.128C92.188,249.766,91.449,249.695,90.647,249.647Zm45.2-2.36a19.391,19.391,0,0,0-1.494,3.9c-.092.61-.181,1.223-.321,1.823-.164.7-.5.644-1.2.774a4.772,4.772,0,0,1-1.115.2,15.891,15.891,0,0,1-4.439.248c-1.66-.109-4.382-.136-6.045-.144q-5.136-.024-10.272,0c-2.417.013-4.834.094-7.25.136-.063,0-.127,0-.191,0a.462.462,0,0,1-.345-.745.392.392,0,0,0-.322-.629c-2.788.058-5.431.11-8.073.173a1.748,1.748,0,0,1-1.446-.322c3.629-.117,7.078-.271,10.529-.328,4.018-.066,8.034.02,12.047.31,2.149.155,4.308.157,6.462.239.489.018.977.129,1.463.111s.959-.048,1.456-.081h0a42.726,42.726,0,0,1,6.714-.065,16.9,16.9,0,0,0-6.358-1.666L121,250.455l0-.2a6.34,6.34,0,0,0,2.5-.92,28.74,28.74,0,0,1,5.061.415,13.585,13.585,0,0,0-6.089-1.673l0-.016,4.984-.3a28.706,28.706,0,0,1,4.671.417,13.514,13.514,0,0,0-3.844-1.4c.216-.033.4-.116.369-.48a3.819,3.819,0,0,1,.472-.032c1.467.076,2.934.149,4.4.243.81.053,1.618.147,2.547.234C135.968,247,135.9,247.14,135.846,247.287Zm2.751,10.436a1.542,1.542,0,0,1-.138.3.307.307,0,0,1-.526.018l-.609-.952a.523.523,0,0,1,.235-.773,1.076,1.076,0,0,1,1.093.159C139.07,256.8,138.728,257.308,138.6,257.723Zm7.159-3.438a17.88,17.88,0,0,0-.135,1.8c-1.89.433-3.769-.212-5.686-.007,0-.883.729-1.888-.37-2.666-.071.128-.144.2-.151.283-.1,1.21-.228,1.326-1.42,1.314-1.136-.012-1.321-.191-1.337-1.291a16.258,16.258,0,0,1,.945-5.934c.211-.571.469-.7.889-.291a8.813,8.813,0,0,1,.926,1.274c.73-.613-.432-1.267-.041-1.82a8.543,8.543,0,0,0-1.345-.66,16.538,16.538,0,0,0-2.416-.533c-.953-.132-1.918-.167-3-.253.657-.7,1.184-1.248,1.95-.431.029.031.111.024.167.018.621-.063,1.242-.129,1.921-.2a2.459,2.459,0,0,0-1.388-.4c-2.871-.407-5.743-.8-8.621-1.154-1.488-.182-2.991-.25-4.483-.405-.4-.042-.782-.239-1.182-.317a5.668,5.668,0,0,0-1.064-.09c-6.737-.011-13.475,0-20.213-.03-2.221-.009-4.441-.157-6.66-.149-1.267,0-2.532.22-3.8.3-1.01.06-2.024.048-3.036.076-.43.012-.581-.216-.568-.606.012-.358,0-.72.041-1.074q.276-2.172.586-4.341a.886.886,0,0,1,1.087-.7,3.462,3.462,0,0,1,1.009.357A6.034,6.034,0,0,1,90.9,238.98c.366.727.685,1.524-.109,2.229,1.263.654,2.147-.6,1.9-1.628a7.46,7.46,0,0,0-1.433-2.744c-.178-.234-.342-.478-.523-.748a.4.4,0,0,1,.28-.615c1.918-.263,3.714-.508,5.509-.758a24.8,24.8,0,0,0,2.7-.428,2.655,2.655,0,0,0,1.077-.777,2.187,2.187,0,0,1,1.935-.732,2.374,2.374,0,0,1,1.079.375,2.159,2.159,0,0,0,1.669.382c1.066-.126,2.125-.307,3.191-.434,1.1-.132,2.2-.3,3.306-.323,2.55-.056,5.1-.035,7.652-.045.356,0,.712,0,1.067,0l.076.21a12.744,12.744,0,0,1-1.674.82,8.248,8.248,0,0,0-4.264,3.565,15.765,15.765,0,0,0-1.382,2.614,1.679,1.679,0,0,0,.4-.263c.754-.9,1.511-1.8,2.233-2.721a7.954,7.954,0,0,1,4.019-2.642,25.45,25.45,0,0,1,8.332-.766,1.411,1.411,0,0,1,1.388,1.489,3.618,3.618,0,0,1-3.12,3.66,35.9,35.9,0,0,1-5.551,1.076,37.4,37.4,0,0,0-4.265.626,9.952,9.952,0,0,0,1.5.18,30.085,30.085,0,0,0,4.1-.233c2.114-.35,4.211-.825,6.286-1.36a5.939,5.939,0,0,0,3.179-1.82,1.011,1.011,0,0,1,.768-.282c.647.07,1.3.15,1.937.271a37.617,37.617,0,0,0,14.477,16.653.934.934,0,0,1-.516-.26A1.549,1.549,0,0,0,145.755,254.285ZM152.4,256.3c-.069.17-.15.335-.258.576-.111-.423-.193-.841-.26-1.256q.329.162.661.319C152.492,256.057,152.445,256.178,152.4,256.3Zm-1.344-15.6a8.409,8.409,0,0,0-2.948.1,4.794,4.794,0,0,0-2.6,1.476,4.391,4.391,0,0,1,2.351-2.221,8.094,8.094,0,0,1,3.286-.609c2.266.065,4.3.808,6.26,1.1a10.257,10.257,0,0,0,2.916.067c.991-.107,2.008-.322,3.065-.487a12.9,12.9,0,0,1,3.264-.165,5.64,5.64,0,0,1,3.028,1.138,6.719,6.719,0,0,0-3.035-.347,16.088,16.088,0,0,0-2.989.612l-.125.035-8.03.391A42.594,42.594,0,0,0,151.052,240.7Zm22.227,10.935c-.112.033-.222.073-.332.112a14.994,14.994,0,0,0-1.41.623,8.529,8.529,0,0,1-2,.73,4.946,4.946,0,0,1-1.165.082,7.64,7.64,0,0,1-1.1-.149c-.7-.151-1.324-.353-1.917-.5-.128-.031-.256-.058-.386-.083a8.983,8.983,0,0,0-1.408-.158,10.591,10.591,0,0,0-3.778.617,6.335,6.335,0,0,1,3.692-1.877,7.235,7.235,0,0,1,2.17,0c.711.109,1.355.294,1.958.416a5.214,5.214,0,0,0,1.69.134,12.208,12.208,0,0,0,1.8-.409,7.5,7.5,0,0,1,2.084-.332,3.911,3.911,0,0,1,1.073.167,2.32,2.32,0,0,1,.908.533h0A3.388,3.388,0,0,0,173.278,251.631Zm5.114-6.122a13.507,13.507,0,0,1-2.466-.7l-.367-.13a7.121,7.121,0,0,0-2.586-.539,3.137,3.137,0,0,0-2.424.986h0a2.477,2.477,0,0,1,.916-1.156,3.964,3.964,0,0,1,1.408-.609,5.611,5.611,0,0,1,1.543-.116,9.928,9.928,0,0,1,1.485.22,23.944,23.944,0,0,0,2.685.537,8.1,8.1,0,0,0,2.551-.215c.867-.195,1.742-.482,2.649-.766a18.3,18.3,0,0,1,2.847-.712,8.539,8.539,0,0,1,3.006.066,4.453,4.453,0,0,1,2.535,1.478,5.128,5.128,0,0,0-2.632-.693,9.536,9.536,0,0,0-2.652.389c-.711.2-1.421.464-2.149.741a23.772,23.772,0,0,1-3.247,1.066A8.388,8.388,0,0,1,178.392,245.509ZM184.5,256.3c-.049-.12-.1-.241-.143-.361q.336-.158.668-.322c-.068.416-.156.835-.267,1.259C184.649,256.633,184.569,256.467,184.5,256.3Zm15.072.787-.609.952a.307.307,0,0,1-.525-.018,1.547,1.547,0,0,1-.139-.3c-.131-.415-.473-.919-.055-1.252a1.076,1.076,0,0,1,1.093-.159A.523.523,0,0,1,199.571,257.085Zm42.55-4.073c-2.643-.063-5.285-.115-8.073-.173a.392.392,0,0,0-.322.629.462.462,0,0,1-.345.745c-.065,0-.128,0-.191,0-2.417-.042-4.833-.124-7.25-.136q-5.136-.027-10.272,0c-1.663.008-4.386.035-6.045.144a15.891,15.891,0,0,1-4.439-.248,4.777,4.777,0,0,1-1.114-.2c-.7-.13-1.039-.073-1.2-.774-.141-.6-.23-1.213-.321-1.823a19.42,19.42,0,0,0-1.494-3.9c-.056-.147-.122-.29-.232-.548.929-.087,1.737-.181,2.547-.234,1.465-.095,2.932-.167,4.4-.243a3.814,3.814,0,0,1,.472.032c-.03.364.153.447.369.48a13.517,13.517,0,0,0-3.844,1.4,28.707,28.707,0,0,1,4.671-.417l4.984.3,0,.016a13.585,13.585,0,0,0-6.089,1.673,28.74,28.74,0,0,1,5.061-.415,6.34,6.34,0,0,0,2.5.92l0,.2-4.638.755a16.9,16.9,0,0,0-6.358,1.666,42.725,42.725,0,0,1,6.714.065h0c.5.034.977.063,1.455.081s.974-.092,1.463-.111c2.154-.082,4.314-.084,6.462-.239,4.013-.29,8.029-.376,12.047-.31,3.451.057,6.9.211,10.529.328A1.747,1.747,0,0,1,242.121,253.012Zm1.847-3.234c-3.329.055-6.658.114-9.988.128-1.631.007-3.261-.095-4.893-.116a.779.779,0,0,1-.878-.685,14.055,14.055,0,0,0-.586-1.3,7.368,7.368,0,0,1-.225-1.075c.368-.035.62-.084.871-.08q6.319.106,12.637.228c1.043.022,2.084.135,3.127.154a.951.951,0,0,1,.919.554c.36.641.779,1.249,1.294,2.06C245.446,249.695,244.708,249.766,243.968,249.778Zm6.726-7.071c-1.012-.029-2.027-.017-3.037-.076-1.269-.076-2.534-.291-3.8-.3-2.22-.008-4.44.14-6.66.149-6.737.028-13.475.019-20.213.03a5.667,5.667,0,0,0-1.064.09c-.4.077-.782.275-1.182.317-1.492.155-2.995.223-4.483.405-2.878.352-5.751.747-8.621,1.154a2.459,2.459,0,0,0-1.388.4c.679.071,1.3.137,1.921.2.056.006.137.012.167-.018.766-.817,1.293-.269,1.95.431-1.082.087-2.048.121-3,.253a16.542,16.542,0,0,0-2.417.533,8.543,8.543,0,0,0-1.345.66c.391.553-.77,1.207-.041,1.82a8.809,8.809,0,0,1,.926-1.274c.42-.406.678-.281.889.291a16.258,16.258,0,0,1,.945,5.934c-.017,1.1-.2,1.279-1.337,1.291-1.192.012-1.315-.1-1.42-1.314-.007-.08-.08-.155-.151-.283-1.1.778-.366,1.783-.369,2.666-1.917-.205-3.8.44-5.686.007a17.871,17.871,0,0,0-.135-1.8,1.549,1.549,0,0,0-2.361-.735.934.934,0,0,1-.516.26,37.614,37.614,0,0,0,14.479-16.659c.639-.119,1.289-.194,1.934-.264a1.011,1.011,0,0,1,.768.282,5.94,5.94,0,0,0,3.179,1.82c2.075.535,4.172,1.01,6.286,1.36a30.088,30.088,0,0,0,4.1.233,9.952,9.952,0,0,0,1.5-.18,37.4,37.4,0,0,0-4.265-.626,35.9,35.9,0,0,1-5.551-1.076,3.618,3.618,0,0,1-3.12-3.66,1.411,1.411,0,0,1,1.388-1.489,25.45,25.45,0,0,1,8.332.766,7.953,7.953,0,0,1,4.019,2.642c.723.924,1.48,1.821,2.233,2.721a1.678,1.678,0,0,0,.4.263,15.767,15.767,0,0,0-1.382-2.614,8.248,8.248,0,0,0-4.264-3.565,12.765,12.765,0,0,1-1.674-.82l.076-.21c.356,0,.712,0,1.068,0,2.551.01,5.1-.011,7.652.045,1.1.024,2.206.191,3.306.323,1.066.127,2.125.308,3.191.434a2.159,2.159,0,0,0,1.669-.382,2.374,2.374,0,0,1,1.079-.375,2.187,2.187,0,0,1,1.935.732,2.655,2.655,0,0,0,1.077.777,24.8,24.8,0,0,0,2.7.428c1.8.25,3.592.5,5.509.758a.4.4,0,0,1,.28.615c-.18.27-.344.514-.522.748a7.46,7.46,0,0,0-1.433,2.744c-.251,1.026.633,2.282,1.9,1.628-.793-.705-.475-1.5-.109-2.229a6.034,6.034,0,0,1,2.543-2.638,3.462,3.462,0,0,1,1.01-.357.886.886,0,0,1,1.087.7q.305,2.169.586,4.341c.045.354.029.716.041,1.074C251.274,242.491,251.124,242.719,250.694,242.706Z" transform="translate(-83.297 -179.266)" fill="#1599fc"/>
        <path id="Path_112" data-name="Path 112" d="M448.492,308.668c-1.411-.19-2.735-.37-4.06-.546-.257-.034-.524-.019-.774-.077a1.271,1.271,0,0,0-1.414.622,6.4,6.4,0,0,0-.365.688,2.042,2.042,0,0,1-1.8,1.13,2.341,2.341,0,0,1-2.416-1.284c-.144-.254-.288-.509-.423-.768a1.951,1.951,0,0,0-1.709-1.11c-.776-.055-1.546-.18-2.321-.244-1.359-.113-2.72-.208-4.081-.3-.192-.013-.615-.047-.8-.065-.57-.057-1.133-.056-1.133-.056-.479-.068-.422.307-.335.69a1.113,1.113,0,0,0,.115.268,17.916,17.916,0,0,0,3.559,4.946,2.912,2.912,0,0,0,2.625,1c1.52.128,3.014.2,4.534.328,1.453.124,2.909.248,4.367.282a17.8,17.8,0,0,0,3.109-.186,4.071,4.071,0,0,0,1.65-.721c1.018-.719,1.232-1.95,1.711-3a9.264,9.264,0,0,0,.353-.964A.485.485,0,0,0,448.492,308.668Z" transform="translate(-287.997 -251.718)" fill="#1599fc"/>
        <path id="Path_113" data-name="Path 113" d="M455.031,311.172a1.714,1.714,0,0,0,2.757.968.881.881,0,0,0,.281-.723c-.089-.365-1.454-.879-1.832-.744C455.822,310.822,455.42,311.009,455.031,311.172Z" transform="translate(-304.859 -254.11)" fill="#1599fc"/>
        <path id="Path_114" data-name="Path 114" d="M455.782,304.7c-.018-.219-.149-.56-.3-.6a.819.819,0,0,0-.671.229,2.6,2.6,0,0,0-.757,2.361C455.529,306.393,455.889,305.981,455.782,304.7Z" transform="translate(-304.251 -250.183)" fill="#1599fc"/>
        <path id="Path_115" data-name="Path 115" d="M460.838,306.914c.367.21.646.049.706-.349a2,2,0,0,0-1.762-2.094c.046.433.083.847.134,1.258A1.6,1.6,0,0,0,460.838,306.914Z" transform="translate(-307.698 -250.417)" fill="#1599fc"/>
        <path id="Path_116" data-name="Path 116" d="M269.111,199.38a26.715,26.715,0,0,0-7.241-5.137c-2.936-1.6-6-2.975-8.389-5.451a52.264,52.264,0,0,0-5.173-4.732,30.243,30.243,0,0,0-8.4-4.437,9.538,9.538,0,0,1,2.141,8.348l6.062,3.132-.954.525a3.216,3.216,0,0,0-.873-.244,25.77,25.77,0,0,0-10.5,2.246c-6.825,3.127-11.181,8.506-13.837,15.373-.445,1.15-.874,1.761-2.287,1.868-4.723.358-8.5,4.6-9.581,9.206,3.833-2.249,7.666-4.28,12.232-2.955s6.714,5.017,8.591,9.132c.979-4.308-.147-10.686-3.906-12.826-.385,1.728-.34,1.7.617,3.038a28.4,28.4,0,0,1,1.516,2.668,34.488,34.488,0,0,0-3.612-3,2.381,2.381,0,0,1-1.326-2.936c.047-.246.047-.5.1-.744,1.88-8.4,6.448-14.728,14.319-18.457a19.536,19.536,0,0,1,8.175-2.2c-.3.134-.6.293-.912.4a28.978,28.978,0,0,0-12.538,8.3,25.89,25.89,0,0,0-4.8,7.666c9.449-6.271,19.164-5.387,29.106-1.842l1.765-2.55a10.2,10.2,0,0,1-.624,2.837c-.289.748-.087,1.061.58,1.476a64.037,64.037,0,0,1,5.822,3.925,32.084,32.084,0,0,1,8.4,10.327,6.761,6.761,0,0,0-.009-3.364,12.519,12.519,0,0,1-.542-6.408C273.532,207.653,272.549,203.133,269.111,199.38Z" transform="translate(-158.788 -175.823)" fill="#1599fc"/>
        <path id="Path_117" data-name="Path 117" d="M283.191,243.124c-.753,2.044-2.411,3.16-4.162,4.187-.743.436-1.521.812-2.3,1.226a3.33,3.33,0,0,0,2.823,2.355,12.3,12.3,0,0,0,3.718-.173c4.307-1.055,7.947-3.443,11.69-6.128a28.264,28.264,0,0,0-10.917-1.957A1.1,1.1,0,0,0,283.191,243.124Z" transform="translate(-198.588 -213.465)" fill="#1599fc"/>
        <path id="Path_118" data-name="Path 118" d="M271.07,172.24c2.678,2.653,5.127,5.449,5.9,9.325.423-2.818-.138-4.486-3-8.972a34.3,34.3,0,0,1,15.051,8.3,5.46,5.46,0,0,0-.78-1.1,34.571,34.571,0,0,0-13.765-8.951,11.928,11.928,0,0,0-3.182-.646c-1-.083-1.257.465-.751,1.35A3.286,3.286,0,0,0,271.07,172.24Z" transform="translate(-194.752 -170.183)" fill="#1599fc"/>
        <path id="Path_119" data-name="Path 119" d="M328.861,251.892c-.159.578-.288,1.044-.44,1.594A26.952,26.952,0,0,1,339,262.857a16.591,16.591,0,0,0,1.951,2.6,10.033,10.033,0,0,0,2.03,1.278l.259-.4C339.935,260.139,335.452,255.1,328.861,251.892Z" transform="translate(-229.409 -219.003)" fill="#1599fc"/>
      </g>
    </g>
    <g id="text-section" transform="translate(0 1)">
      <g id="text-section-2" data-name="text-section" transform="translate(0 13)">
        <g id="title" transform="translate(637 -540)">
          <text id="Платеж_успешный_" data-name="Платеж
успешный!" transform="translate(218 985)" fill="#13293d" font-size="36" font-family="Montserrat-ExtraBold, Montserrat" font-weight="800"><tspan x="0" y="0">Платеж</tspan><tspan x="0" y="44">успешный!</tspan></text>
        </g>
        <g id="sub-title" transform="translate(123 -317)">
          <text id="Ваш_билет_отправлено_вам_на_почту_и_сразу_его_распечатать" data-name="Ваш билет отправлено вам
на почту и сразу его распечатать" transform="translate(732 864)" fill="#13293d" font-size="20" font-family="Montserrat-Regular, Montserrat"><tspan x="0" y="0">Ваш билет отправлено вам</tspan><tspan x="0" y="32">на почту и сразу его распечатать</tspan></text>
        </g>
      </g>
      <g id="cta:hover" transform="translate(957 -163)">
        <g id="bg-2" data-name="bg">
          <g transform="matrix(1, 0, 0, 1, -358, 504)" filter="url(#Rectangle_4)">
            <rect id="Rectangle_4-2" data-name="Rectangle 4" width="190" height="30" rx="15" transform="translate(662 174)" fill="#1599fc"/>
          </g>
          <rect id="Rectangle_20" data-name="Rectangle 20" width="260" height="70" rx="35" transform="translate(269 638)" fill="#1599fc"/>
        </g>
        <g id="text" transform="translate(4 2)">
          <text id="На_главную" data-name="На главную" transform="translate(333 678)" fill="#fbfbff" font-size="20" font-family="Montserrat-SemiBold, Montserrat" font-weight="600"><tspan x="0" y="0">На главную</tspan></text>
        </g>
      </g>
    </g>
  </g>
</svg>
