<svg xmlns="http://www.w3.org/2000/svg" xmlns:xlink="http://www.w3.org/1999/xlink" width="42" height="30" viewBox="0 0 42 30">
  <defs>
    <clipPath id="clip-path">
      <rect id="Rectangle_19" data-name="Rectangle 19" width="42" height="30" fill="#fbfbff"/>
    </clipPath>
  </defs>
  <g id="ico" transform="translate(-405 1)">
    <g id="Group_12" data-name="Group 12" transform="translate(405 -1)">
      <g id="Group_11" data-name="Group 11" transform="translate(0)" clip-path="url(#clip-path)">
        <path id="Path_126" data-name="Path 126" d="M414.888,17.44a.729.729,0,0,0-.36.957l1.652,3.527a.736.736,0,0,0,.969.358l12.48-5.8L428.5,28.238a.728.728,0,0,0,.242.613,3.214,3.214,0,0,0,1.938.73,2.37,2.37,0,0,0,.58-.073c1.013-.263,1.8-1.161,2.335-2.694L438.5,12.351l9.727-4.512c2.863-1.329,4.339-4.023,3.348-6.126A3.716,3.716,0,0,0,448.709-.28,6.837,6.837,0,0,0,444.7.334L433.475,5.568,421.407.874c-1.52-.569-2.724-.555-3.568.052a2.97,2.97,0,0,0-1.094,2.358.729.729,0,0,0,.315.577l8.127,5.556-4.654,2.19-7.8-1.972a.736.736,0,0,0-.815.35l-1.945,3.482a.729.729,0,0,0,.382,1.03l5.777,2.373Zm3.362-14.521a1.247,1.247,0,0,1,.441-.789c.419-.3,1.182-.255,2.2.124L431.64,6.423l-4.9,2.278Zm-6.607,10.543L412.92,11.2l7.51,1.854a.738.738,0,0,0,.485-.043l24.41-11.339a5.392,5.392,0,0,1,3.135-.5,2.3,2.3,0,0,1,1.791,1.153c.616,1.314-.595,3.235-2.643,4.184L439.15,10.46l.514-1.512a.746.746,0,0,0-1.417-.467l-6.042,17.88c-.36,1.015-.808,1.621-1.307,1.752a1.248,1.248,0,0,1-.9-.168l1.468-15.333A.737.737,0,0,0,430,12.475l-.227,2.344-12.6,5.841-1.035-2.19,2.07-.963a.728.728,0,0,0,0-1.336Zm0,0" transform="translate(-409.887 0.394)" fill="#fbfbff"/>
      </g>
    </g>
  </g>
</svg>
