<svg xmlns="http://www.w3.org/2000/svg" xmlns:xlink="http://www.w3.org/1999/xlink" width="38" height="35" viewBox="0 0 38 35">
  <defs>
    <clipPath id="clip-path">
      <rect id="Rectangle_52" data-name="Rectangle 52" width="38" height="34.536" transform="translate(0 0)" fill="#1599fc"/>
    </clipPath>
  </defs>
  <g id="ico" transform="translate(-593.938 -177.477)">
    <path id="Path_139" data-name="Path 139" d="M649.583,201.782v-2.42a.747.747,0,0,0-1.492,0v2l-12.983,6.785V194.638l12.983-6.785v6.113a.747.747,0,0,0,1.492,0v-7.312a.705.705,0,0,0-.387-.622l-14.475-7.565a.78.78,0,0,0-.718,0l-14.474,7.565a.705.705,0,0,0-.387.622v5.371a.747.747,0,0,0,1.492,0v-4.171l3.958,2.069v4.37a.706.706,0,0,0,.383.621l3.575,1.9a.777.777,0,0,0,.741-.008.7.7,0,0,0,.369-.612V192.57l3.957,2.068v13.509l-12.982-6.785v-3.751a.747.747,0,0,0-1.492,0v4.171a.706.706,0,0,0,.387.622L634,209.97a.78.78,0,0,0,.718,0L649.2,202.4a.706.706,0,0,0,.387-.622Zm-9.554-18.922,1.8.968-12.893,6.745-1.459-.763-.607-.326,12.91-6.754Zm3.376,1.764,3.881,2.029-12.925,6.754-3.875-2.025Zm-9.043-4.726,3.869,2.022-12.918,6.758-3.875-2.025Zm-8.278,13.976V190.7l.668.35,1.415.759v3.169Zm0,0" transform="translate(-23.256 -0.902)" fill="#1599fc"/>
    <path id="Path_140" data-name="Path 140" d="M1007.2,424.441a.746.746,0,1,0,.527.218.752.752,0,0,0-.527-.218Zm0,0" transform="translate(-381.946 -229.413)" fill="#1599fc"/>
    <g id="Group_62" data-name="Group 62" transform="translate(593.938 177.94)">
      <g id="Group_61" data-name="Group 61" transform="translate(0 0)" clip-path="url(#clip-path)">
        <path id="Path_141" data-name="Path 141" d="M620.408,400.2a.695.695,0,0,0,0-1.008.76.76,0,0,0-1.047,0,.7.7,0,0,0,0,1.008.76.76,0,0,0,1.047,0Zm0,0" transform="translate(-617.214 -383.671)" fill="#1599fc"/>
        <path id="Path_142" data-name="Path 142" d="M1057.865,307.479V296.51a.759.759,0,0,0,.886-.117.7.7,0,0,0,0-1.008l-1.1-1.063a.76.76,0,0,0-1.046,0l-1.1,1.063a.7.7,0,0,0,0,1.008.761.761,0,0,0,.886.117v10.969a.76.76,0,0,0-.886.116.7.7,0,0,0,0,1.008l1.1,1.063a.759.759,0,0,0,1.046,0l1.1-1.063a.7.7,0,0,0,0-1.008.761.761,0,0,0-.886-.116Zm0,0" transform="translate(-1021.035 -286.291)" fill="#1599fc"/>
        <path id="Path_143" data-name="Path 143" d="M860.138,539.227l-1.48-.471a.746.746,0,0,0-.934.454.7.7,0,0,0,.352.851l-10.8,5.714a.716.716,0,0,0-.526-.678.745.745,0,0,0-.922.477l-.45,1.439a.709.709,0,0,0,.495.888l1.493.434a.759.759,0,0,0,.214.031.737.737,0,0,0,.708-.507.7.7,0,0,0-.329-.817l10.718-5.673a.716.716,0,0,0,.507.64.759.759,0,0,0,.232.036.738.738,0,0,0,.7-.49l.488-1.427a.688.688,0,0,0-.042-.544.733.733,0,0,0-.429-.356Zm0,0" transform="translate(-826.658 -513.425)" fill="#1599fc"/>
        <path id="Path_144" data-name="Path 144" d="M608.813,545.574a.745.745,0,0,0-.922-.477.717.717,0,0,0-.526.678l-10.8-5.714a.7.7,0,0,0,.352-.851.746.746,0,0,0-.934-.454l-1.481.471-.01,0a.732.732,0,0,0-.407.33.687.687,0,0,0-.054.563.01.01,0,0,0,0,0l.488,1.427a.738.738,0,0,0,.7.49.759.759,0,0,0,.232-.036.717.717,0,0,0,.507-.64l10.718,5.673a.7.7,0,0,0-.329.817.737.737,0,0,0,.708.507.766.766,0,0,0,.214-.03l1.47-.428h0l.019-.006,0,0a.731.731,0,0,0,.431-.337.686.686,0,0,0,.058-.554Zm0,0" transform="translate(-593.931 -513.427)" fill="#1599fc"/>
      </g>
    </g>
  </g>
</svg>
