<svg xmlns="http://www.w3.org/2000/svg" width="40" height="36" viewBox="0 0 40 36">
  <g id="ico" transform="translate(-41.782 -67.005)">
    <path id="Path_65" data-name="Path 65" d="M219.442,207.44a3.671,3.671,0,1,0-3.671-3.671,3.671,3.671,0,0,0,3.671,3.671Zm0-5.594a1.923,1.923,0,1,1-1.923,1.923,1.923,1.923,0,0,1,1.923-1.923Z" transform="translate(-157.397 -119.909)" fill="#fbfbff"/>
    <path id="Path_66" data-name="Path 66" d="M78.311,70.135,51.789,67.043a3.577,3.577,0,0,0-2.866.848,3.817,3.817,0,0,0-1.409,2.594l-.486,4.09H45.523a3.966,3.966,0,0,0-3.74,4.14v20.4A3.748,3.748,0,0,0,45.376,103q.074,0,.147,0H72.19a4.033,4.033,0,0,0,4.08-3.891v-.8a4.791,4.791,0,0,0,1.846-.8,4.173,4.173,0,0,0,1.409-2.693L81.76,74.575A4.017,4.017,0,0,0,78.311,70.135ZM45.523,76.57H72.19a2.263,2.263,0,0,1,2.137,2.145v8.38L63.739,93.429a2.426,2.426,0,0,1-2.866-.249L55.53,88.341a4.235,4.235,0,0,0-5.392-.2L43.726,92.93V78.715A2,2,0,0,1,45.523,76.57ZM72.19,101.01H45.523a1.769,1.769,0,0,1-1.8-1.742c0-.051,0-.1,0-.153V95.424l7.529-5.686a2.286,2.286,0,0,1,3.012.15l5.295,4.788a4.5,4.5,0,0,0,2.866,1.1,4.333,4.333,0,0,0,2.332-.648l9.569-5.686v9.676A2.064,2.064,0,0,1,72.19,101.01Zm7.626-26.685L77.534,94.576a1.713,1.713,0,0,1-.631,1.347c-.194.2-.631.3-.631.4V78.715a4.233,4.233,0,0,0-4.08-4.14H48.972l.437-3.891a2.309,2.309,0,0,1,.729-1.3,2.191,2.191,0,0,1,1.457-.4l26.473,3.142a1.981,1.981,0,0,1,1.751,2.175C79.818,74.312,79.817,74.319,79.817,74.325Z" fill="#fbfbff"/>
  </g>
</svg>
