<svg xmlns="http://www.w3.org/2000/svg" width="165" height="98" viewBox="0 0 165 98">
  <g id="logo" transform="translate(-83.297 -170.183)">
    <g id="Group_9" data-name="Group 9" transform="translate(83.859 252.046)">
      <path id="Path_93" data-name="Path 93" d="M96.379,383.369v15.817H94.4v-2.238a4.486,4.486,0,0,1-1.716,1.737,5.009,5.009,0,0,1-2.5.607,5.384,5.384,0,0,1-2.824-.735,5.052,5.052,0,0,1-1.908-2.047,6.393,6.393,0,0,1-.682-3,6.222,6.222,0,0,1,.682-2.952,5.015,5.015,0,0,1,1.908-2.014,5.406,5.406,0,0,1,2.8-.724,5.191,5.191,0,0,1,2.536.6,4.244,4.244,0,0,1,1.706,1.727v-6.779Zm-3.826,13.707a3.592,3.592,0,0,0,1.353-1.428,4.313,4.313,0,0,0,.49-2.068,4.361,4.361,0,0,0-.49-2.089,3.594,3.594,0,0,0-1.353-1.428,3.8,3.8,0,0,0-1.972-.511,3.734,3.734,0,0,0-1.971.522,3.669,3.669,0,0,0-1.354,1.439,4.6,4.6,0,0,0,0,4.135,3.59,3.59,0,0,0,1.354,1.428,4.057,4.057,0,0,0,3.944,0Z" transform="translate(-84.761 -383.241)" fill="#fff"/>
      <path id="Path_94" data-name="Path 94" d="M132.132,396.581a6.337,6.337,0,0,1,1.343,4.3q0,.427-.021.64h-8.91a3.842,3.842,0,0,0,1.268,2.409,3.754,3.754,0,0,0,2.547.9,4.775,4.775,0,0,0,1.866-.362,4.483,4.483,0,0,0,1.5-1.023l1.087,1.13a5.692,5.692,0,0,1-2,1.386,6.669,6.669,0,0,1-2.6.491,5.991,5.991,0,0,1-2.953-.714,5.01,5.01,0,0,1-2-2.014,6.049,6.049,0,0,1-.714-2.963,5.987,5.987,0,0,1,.714-2.952,5.2,5.2,0,0,1,1.993-2.025,5.752,5.752,0,0,1,2.92-.736A4.97,4.97,0,0,1,132.132,396.581Zm-.448,3.4a3.268,3.268,0,0,0-3.5-3.3,3.566,3.566,0,0,0-2.483.9,3.756,3.756,0,0,0-1.183,2.409Z" transform="translate(-108.044 -390.432)" fill="#fff"/>
      <path id="Path_95" data-name="Path 95" d="M158.373,383.369h1.983v15.817h-1.983Z" transform="translate(-130.128 -383.241)" fill="#fff"/>
      <path id="Path_96" data-name="Path 96" d="M175.06,385.274a1.732,1.732,0,0,0-.511,1.343v1.471h3.112V389.6h-3.112v9.38h-1.983V389.6H171.1v-1.513h1.471v-1.215a3.983,3.983,0,0,1,.523-2.1,3.4,3.4,0,0,1,1.375-1.3,3.962,3.962,0,0,1,1.833-.437,4.386,4.386,0,0,1,1.961.511l-.469,1.62a3.4,3.4,0,0,0-1.45-.363A1.823,1.823,0,0,0,175.06,385.274Zm6.278-1.705a1.371,1.371,0,0,1,0,1.833,1.262,1.262,0,0,1-1.77,0,1.371,1.371,0,0,1,0-1.833,1.261,1.261,0,0,1,1.77,0Zm-1.866,4.135h1.983v11.277h-1.983Z" transform="translate(-137.858 -383.036)" fill="#fff"/>
      <path id="Path_97" data-name="Path 97" d="M217.4,388.57a4.981,4.981,0,0,1,1.918,2.025,6.85,6.85,0,0,1,.01,5.937,4.869,4.869,0,0,1-1.9,2,5.465,5.465,0,0,1-2.8.714,5.141,5.141,0,0,1-2.515-.6,4.283,4.283,0,0,1-1.706-1.705v2.238h-1.983V383.369h1.983v6.779a4.3,4.3,0,0,1,1.695-1.705,5.036,5.036,0,0,1,2.483-.6A5.462,5.462,0,0,1,217.4,388.57Zm-1.247,8.442a3.521,3.521,0,0,0,1.343-1.428,4.4,4.4,0,0,0,.48-2.068,4.273,4.273,0,0,0-.49-2.046,3.617,3.617,0,0,0-1.343-1.428,3.693,3.693,0,0,0-1.94-.512,3.748,3.748,0,0,0-1.95.512,3.587,3.587,0,0,0-1.354,1.428,4.582,4.582,0,0,0,0,4.125,3.607,3.607,0,0,0,1.354,1.418,3.973,3.973,0,0,0,3.9,0Z" transform="translate(-160.817 -383.241)" fill="#fff"/>
      <path id="Path_98" data-name="Path 98" d="M255.178,395.2V406.48h-2v-2.388A4.24,4.24,0,0,1,249,406.544a4.039,4.039,0,0,1-3.07-1.162,4.456,4.456,0,0,1-1.108-3.208V395.2h2v6.438a3.058,3.058,0,0,0,.778,2.228,2.851,2.851,0,0,0,2.142.8,3.168,3.168,0,0,0,2.5-1.119,4.194,4.194,0,0,0,.927-2.8V395.2Z" transform="translate(-183.199 -390.535)" fill="#fff"/>
      <path id="Path_99" data-name="Path 99" d="M284.16,396.878a5.544,5.544,0,0,0-1.61-.256,2.753,2.753,0,0,0-1.439.33,1.1,1.1,0,0,0-.544,1.013,1.126,1.126,0,0,0,.608,1.034,8.809,8.809,0,0,0,1.844.714,14.414,14.414,0,0,1,1.919.682,3.409,3.409,0,0,1,1.269,1,3.1,3.1,0,0,1-.683,4.178,5.148,5.148,0,0,1-2.995.831,7.483,7.483,0,0,1-2.441-.405,5.542,5.542,0,0,1-1.993-1.151l.746-1.45a5.278,5.278,0,0,0,1.737,1.023,5.769,5.769,0,0,0,2.014.384,3.013,3.013,0,0,0,1.577-.363,1.208,1.208,0,0,0,.6-1.108,1.261,1.261,0,0,0-.629-1.151,8.563,8.563,0,0,0-1.908-.768,12.74,12.74,0,0,1-1.844-.65,3.265,3.265,0,0,1-1.215-.97,2.616,2.616,0,0,1-.5-1.663,2.678,2.678,0,0,1,1.151-2.366,4.977,4.977,0,0,1,2.878-.788,7.188,7.188,0,0,1,2.014.288,6.054,6.054,0,0,1,1.716.778l-.725,1.513A6.766,6.766,0,0,0,284.16,396.878Z" transform="translate(-203.667 -390.398)" fill="#fff"/>
      <path id="Path_100" data-name="Path 100" d="M307.089,419.045a1.2,1.2,0,0,1,.331.874,1.242,1.242,0,0,1-.331.885,1.081,1.081,0,0,1-.82.352,1.113,1.113,0,0,1-.831-.352,1.219,1.219,0,0,1-.341-.885,1.182,1.182,0,0,1,.341-.874,1.131,1.131,0,0,1,.831-.341A1.1,1.1,0,0,1,307.089,419.045Z" transform="translate(-220.285 -405.018)" fill="#fff"/>
      <path id="Path_101" data-name="Path 101" d="M321.837,396.805a3.922,3.922,0,0,0-1.972.49,3.482,3.482,0,0,0-1.353,1.386,4.232,4.232,0,0,0-.491,2.068,4.312,4.312,0,0,0,.48,2.068,3.525,3.525,0,0,0,1.322,1.4,3.7,3.7,0,0,0,1.929.5,5.067,5.067,0,0,0,1.961-.363,3.728,3.728,0,0,0,1.45-1.044l1.13,1.151a4.985,4.985,0,0,1-1.951,1.471,6.678,6.678,0,0,1-2.675.512,5.816,5.816,0,0,1-2.92-.725,5.121,5.121,0,0,1-1.993-2.014,5.987,5.987,0,0,1-.714-2.953,6.048,6.048,0,0,1,.714-2.963,5.109,5.109,0,0,1,1.993-2.025,5.82,5.82,0,0,1,2.92-.725,7.14,7.14,0,0,1,2.569.437,4.974,4.974,0,0,1,1.907,1.268l-1.087,1.364A4.465,4.465,0,0,0,321.837,396.805Z" transform="translate(-227.001 -390.432)" fill="#fff"/>
      <path id="Path_102" data-name="Path 102" d="M354.778,395.761a5.22,5.22,0,0,1,2.046,2.014,6.315,6.315,0,0,1,0,5.916,5.192,5.192,0,0,1-2.046,2.025,6.592,6.592,0,0,1-6.011,0,5.208,5.208,0,0,1-2.047-2.014,6.339,6.339,0,0,1,0-5.926,5.215,5.215,0,0,1,2.047-2.014,6.595,6.595,0,0,1,6.011,0Zm-4.967,1.513a3.542,3.542,0,0,0-1.343,1.418,4.331,4.331,0,0,0-.48,2.057,4.44,4.44,0,0,0,.48,2.089,3.445,3.445,0,0,0,1.343,1.417,3.855,3.855,0,0,0,1.972.5,3.812,3.812,0,0,0,1.95-.5,3.442,3.442,0,0,0,1.343-1.417,4.441,4.441,0,0,0,.48-2.089,4.332,4.332,0,0,0-.48-2.057,3.539,3.539,0,0,0-1.343-1.418,3.755,3.755,0,0,0-1.95-.511A3.8,3.8,0,0,0,349.811,397.274Z" transform="translate(-245.416 -390.432)" fill="#fff"/>
      <path id="Path_103" data-name="Path 103" d="M400.98,396.209a4.467,4.467,0,0,1,1.109,3.2v6.971h-2v-6.438a3.1,3.1,0,0,0-.778-2.238,2.831,2.831,0,0,0-2.142-.81,3.236,3.236,0,0,0-2.516,1.13,4.181,4.181,0,0,0-.917,2.793v5.564h-2v-6.438a3.124,3.124,0,0,0-.767-2.238,2.823,2.823,0,0,0-2.153-.81,3.271,3.271,0,0,0-2.526,1.13,4.155,4.155,0,0,0-.927,2.793v5.564h-1.983V395.1h1.983v2.366a4.263,4.263,0,0,1,4.2-2.43,4.314,4.314,0,0,1,2.59.746,3.658,3.658,0,0,1,1.4,2.089,4.279,4.279,0,0,1,4.392-2.835A3.994,3.994,0,0,1,400.98,396.209Z" transform="translate(-268.39 -390.432)" fill="#fff"/>
      <path id="Path_104" data-name="Path 104" d="M441.032,419.045a1.205,1.205,0,0,1,.33.874,1.243,1.243,0,0,1-.33.885,1.082,1.082,0,0,1-.821.352,1.114,1.114,0,0,1-.831-.352,1.218,1.218,0,0,1-.341-.885,1.182,1.182,0,0,1,.341-.874,1.131,1.131,0,0,1,.831-.341A1.1,1.1,0,0,1,441.032,419.045Z" transform="translate(-302.589 -405.018)" fill="#fff"/>
      <path id="Path_105" data-name="Path 105" d="M462.232,395.2V406.48h-2v-2.388a4.241,4.241,0,0,1-4.178,2.452,4.038,4.038,0,0,1-3.07-1.162,4.457,4.457,0,0,1-1.108-3.208V395.2h2v6.438a3.059,3.059,0,0,0,.778,2.228,2.851,2.851,0,0,0,2.142.8,3.169,3.169,0,0,0,2.505-1.119,4.194,4.194,0,0,0,.927-2.8V395.2Z" transform="translate(-310.498 -390.535)" fill="#fff"/>
      <path id="Path_106" data-name="Path 106" d="M494.271,406.377V404.8a4.625,4.625,0,0,1-3.943,1.663,4.5,4.5,0,0,1-2.057-.448,3.293,3.293,0,0,1-1.364-1.236,3.339,3.339,0,0,1-.48-1.77,2.9,2.9,0,0,1,1.119-2.4,5.011,5.011,0,0,1,3.123-.906h3.581v-.533a2.331,2.331,0,0,0-.735-1.844,3.141,3.141,0,0,0-2.143-.65,6.134,6.134,0,0,0-3.475,1.215l-.831-1.364a10.3,10.3,0,0,1,2.248-1.14,7.676,7.676,0,0,1,2.462-.352,4.716,4.716,0,0,1,3.261,1.034,3.744,3.744,0,0,1,1.173,2.888l.021,7.419Zm-1.183-2.228a2.648,2.648,0,0,0,1.162-1.78v-1.13h-3.3a3.856,3.856,0,0,0-1.993.405,1.4,1.4,0,0,0-.65,1.279,1.661,1.661,0,0,0,.661,1.386,2.815,2.815,0,0,0,1.77.511A4.034,4.034,0,0,0,493.088,404.149Z" transform="translate(-331.794 -390.432)" fill="#fff"/>
    </g>
    <g id="Group_10" data-name="Group 10" transform="translate(83.297 170.183)">
      <path id="Path_107" data-name="Path 107" d="M127.63,307.314c.082-.366.136-.723-.32-.658,0,0-.537,0-1.08.054-.172.017-.575.05-.758.062-1.3.089-2.594.179-3.89.287-.739.062-1.473.181-2.213.233a1.86,1.86,0,0,0-1.63,1.058c-.129.247-.266.49-.4.732a2.231,2.231,0,0,1-2.3,1.224,1.946,1.946,0,0,1-1.713-1.077,6.031,6.031,0,0,0-.348-.656,1.212,1.212,0,0,0-1.348-.593c-.239.056-.493.041-.738.074-1.263.168-2.525.339-3.87.521a.463.463,0,0,0-.378.6,8.814,8.814,0,0,0,.337.919c.456,1.006.661,2.179,1.631,2.864a3.88,3.88,0,0,0,1.573.688,16.964,16.964,0,0,0,2.964.177c1.389-.033,2.777-.15,4.162-.269,1.449-.124,2.873-.191,4.322-.313a2.776,2.776,0,0,0,2.5-.955,17.078,17.078,0,0,0,3.392-4.714A1.08,1.08,0,0,0,127.63,307.314Z" transform="translate(-97.668 -254.287)" fill="#fff"/>
      <path id="Path_108" data-name="Path 108" d="M125.741,311.381a.84.84,0,0,0,.268.689,1.634,1.634,0,0,0,2.629-.923c-.371-.155-.754-.333-1.151-.475C127.127,310.543,125.826,311.033,125.741,311.381Z" transform="translate(-109.45 -256.754)" fill="#fff"/>
      <path id="Path_109" data-name="Path 109" d="M131.547,306.561a2.476,2.476,0,0,0-.722-2.251.78.78,0,0,0-.64-.219c-.142.041-.267.366-.285.575C129.8,305.892,130.143,306.285,131.547,306.561Z" transform="translate(-112.009 -252.704)" fill="#fff"/>
      <path id="Path_110" data-name="Path 110" d="M124.827,306.8a1.529,1.529,0,0,0,.879-1.129c.048-.392.084-.786.127-1.2a1.909,1.909,0,0,0-1.679,2C124.211,306.847,124.477,307,124.827,306.8Z" transform="translate(-108.468 -252.945)" fill="#fff"/>
      <path id="Path_111" data-name="Path 111" d="M244.777,239.39a2.517,2.517,0,0,1-.774-1.839,19.761,19.761,0,0,0-.409-3.215,5.734,5.734,0,0,0-1.8-3.475c-1-.786-1.963-1.626-2.988-2.381-2.3-1.694-4.645-3.336-6.947-5.032a6.516,6.516,0,0,1-1.216-1.259c-.456-.586-1.154-1.317-1.647-1.865-1.622-1.8-2.92-3.522-4.572-5.3-.369-.4-.913-.67-.887-1.347,0-.116-.225-.277-.378-.355a5.212,5.212,0,0,0-.863-.347,45.819,45.819,0,0,0-13.175-2.235c-.684,0-1.366-.1-2.05-.1-1.556-.009-3.119-.08-4.666.043a12.092,12.092,0,0,0-3.374.789A35.588,35.588,0,0,0,175.8,186.651a35.017,35.017,0,0,0-5.081-1.266,20.6,20.6,0,0,1,1.967,1.974c.884.214,1.761.459,2.626.747A34.038,34.038,0,0,1,197.7,228.326a5.926,5.926,0,0,0-4.619.892,30.885,30.885,0,0,1-4.418,2.646c-2.417.921-5.139.492-7.651-.143s-5.038-1.469-7.628-1.32c-4.108.236-7.89,2.923-11.986,2.542-3.973-.369-7.582-3.6-11.476-2.741-2.62.576-4.547,2.9-7.158,3.514-2.126.5-4.334-.2-6.4-.9l-4.251-1.433a34.037,34.037,0,0,1,24.444-44.113c.584-.138,1.172-.258,1.763-.365a15.9,15.9,0,0,1-.8-1.389c0-.006,0-.013-.008-.019-.438.086-.874.177-1.308.28a35.88,35.88,0,0,0-19.625,12.4,35.211,35.211,0,0,0-6.695,13.28,12.07,12.07,0,0,0-3.356-.781c-1.547-.123-3.11-.052-4.666-.043-.684,0-1.366.1-2.05.1a45.819,45.819,0,0,0-13.175,2.235,5.225,5.225,0,0,0-.863.347c-.153.079-.382.239-.377.355.026.677-.518.951-.887,1.347-1.652,1.775-2.95,3.5-4.572,5.3-.493.548-1.191,1.28-1.647,1.865a6.516,6.516,0,0,1-1.216,1.259c-2.3,1.7-4.644,3.338-6.947,5.032-1.025.754-1.987,1.595-2.989,2.381a5.735,5.735,0,0,0-1.8,3.475,19.8,19.8,0,0,0-.409,3.215,2.517,2.517,0,0,1-.774,1.839,9.48,9.48,0,0,0-.852,3.8A19.989,19.989,0,0,0,83.839,246c.065.3.253.577.295.878.214,1.54,1.287,2.115,2.643,2.309.889.127,1.8.137,2.694.185.37.02.743,0,1.208,0a4.308,4.308,0,0,0,.273,4.189c.342.663,1.315,2.44,1.993,2.578a20.872,20.872,0,0,0,3.1,0c.082.019,1.99-.284,1.263-1.835l3.05-.049c.5-.008,1-.014,1.5-.033,1.368-.054,2.735-.145,4.1-.161.931-.011,1.863.1,2.8.124,1.215.035,2.431.027,3.646.067q5.32.176,10.639.376c1.4.05,2.8.089,4.2.168,1.025.058,2,.237,2.363,1.428a.739.739,0,0,0,.438.412,12.227,12.227,0,0,0,2.791.332,3.721,3.721,0,0,0,2.457-.6,2.774,2.774,0,0,1,2.46-.831,1.982,1.982,0,0,0,.521-.048l0-.081-1.643-.319c.081-.359.123-.629.2-.887.289-.922.4-1,1.371-.938q1.715.109,3.428.254c.859.073.932.168,1.165,1.043.17.638.5,1.178,1.24,1.206a24.534,24.534,0,0,0,4,.019c.606-.077,1.193-.723,1.679-1.218a3.213,3.213,0,0,0,.8-1.389,35.8,35.8,0,0,0,27.908,0,3.213,3.213,0,0,0,.8,1.389c.487.495,1.073,1.141,1.679,1.218a24.533,24.533,0,0,0,4-.019c.742-.028,1.07-.568,1.24-1.206.232-.874.306-.97,1.165-1.043q1.713-.147,3.428-.254c.975-.062,1.081.015,1.371.938.081.258.123.528.2.887l-1.642.319,0,.081a1.982,1.982,0,0,0,.521.048,2.775,2.775,0,0,1,2.46.831,3.72,3.72,0,0,0,2.457.6,12.23,12.23,0,0,0,2.791-.332.739.739,0,0,0,.438-.412c.365-1.191,1.338-1.37,2.363-1.428,1.4-.079,2.8-.118,4.2-.168q5.319-.192,10.639-.376c1.215-.04,2.431-.031,3.646-.067.933-.027,1.865-.135,2.8-.124,1.368.016,2.735.107,4.1.161.5.02,1,.025,1.5.033l3.05.049c-.726,1.551,1.182,1.854,1.263,1.835a20.872,20.872,0,0,0,3.1,0c.678-.138,1.651-1.915,1.993-2.578a4.309,4.309,0,0,0,.273-4.189c.465,0,.837.016,1.207,0,.9-.048,1.806-.058,2.694-.185,1.356-.194,2.429-.769,2.643-2.309.042-.3.229-.578.295-.878a19.937,19.937,0,0,0,.538-2.812A9.481,9.481,0,0,0,244.777,239.39ZM202.85,212.095q4.485.029,8.968.206c1.332.052,2.662.236,3.987.411a25.312,25.312,0,0,1,6.484,1.99c.346.147.781.252.863.9-.355-.075-.639-.125-.917-.2-1.35-.344-2.7-.683-4.048-1.042a28.8,28.8,0,0,0-5.125-.76c-.692-.058-1.427-.026-2.144-.026a13.629,13.629,0,0,0-2.242-.027,4.115,4.115,0,0,1-.876-.025h-.016c-.055,0-.111-.008-.167-.012a17.521,17.521,0,0,0-6.791.829,27.362,27.362,0,0,1,6.1.626l.008-.014.038.044a12.934,12.934,0,0,0-4.552.741,27.388,27.388,0,0,1,6.1.626l.018-.023.094.08a12.942,12.942,0,0,0-4.92.729,27.345,27.345,0,0,1,6.1.626h0l.011.013a12.909,12.909,0,0,0-4.147.742,27.335,27.335,0,0,1,5.089.436,12.82,12.82,0,0,0-2.942.665,27.341,27.341,0,0,1,5.107.439,12.9,12.9,0,0,0-3.768.728,27.382,27.382,0,0,1,5.636.539,12.866,12.866,0,0,0-3.277.7,39.919,39.919,0,0,1,5.927.46c.083.015.166.029.248.047.328.074.652.129.973.177l.042.008v0a52.229,52.229,0,0,1,6.077.746c.757.186,1.494.442,2.255.613a15.133,15.133,0,0,1,6.72,2.8c.571.478,1.2.889,1.784,1.351s1.139.937,1.707,1.407a.628.628,0,0,1-.438.064c-2.046-.353-4.087-.742-6.139-1.05-1.718-.257-3.45-.422-5.177-.624-1.975-.231-3.917-.572-5.926-.648-4.529-.171-9.065.087-13.6.17a7.919,7.919,0,0,0-1.8.243c-1.7.431-3.41.848-5.088,1.358a35.518,35.518,0,0,0,.261-16.365A9.3,9.3,0,0,1,202.85,212.095ZM198.6,232.283l-.522.141q.085-.235.167-.472A1.1,1.1,0,0,1,198.6,232.283Zm-67.92-.33q.082.237.167.472l-.522-.141A1.1,1.1,0,0,1,130.683,231.953Zm-37.292-3.716c.586-.461,1.214-.872,1.784-1.351a15.129,15.129,0,0,1,6.72-2.8c.76-.17,1.5-.427,2.254-.613a52.228,52.228,0,0,1,6.077-.746v0l.042-.008c.321-.048.644-.1.973-.177.082-.018.166-.032.248-.047a39.91,39.91,0,0,1,5.927-.46,12.866,12.866,0,0,0-3.277-.7,27.382,27.382,0,0,1,5.636-.539,12.9,12.9,0,0,0-3.768-.728,27.341,27.341,0,0,1,5.107-.439,12.815,12.815,0,0,0-2.942-.665,27.335,27.335,0,0,1,5.089-.436,12.909,12.909,0,0,0-4.147-.742l.01-.013h0a27.348,27.348,0,0,1,6.1-.626,12.942,12.942,0,0,0-4.92-.729l.094-.08.018.023a27.388,27.388,0,0,1,6.1-.626A12.934,12.934,0,0,0,121.96,215l.038-.044.008.014a27.362,27.362,0,0,1,6.1-.626,17.514,17.514,0,0,0-6.791-.829c-.056,0-.112.007-.167.012h-.016a4.115,4.115,0,0,1-.876.025,13.629,13.629,0,0,0-2.242.027c-.717,0-1.452-.031-2.144.026a28.8,28.8,0,0,0-5.125.76c-1.346.359-2.7.7-4.048,1.042-.278.071-.562.12-.917.2.082-.647.518-.752.863-.9a25.32,25.32,0,0,1,6.484-1.99c1.324-.174,2.654-.359,3.987-.411q4.481-.174,8.968-.206a9.308,9.308,0,0,1,3.492.687,35.875,35.875,0,0,0-.816,7.634,35.441,35.441,0,0,0,1.09,8.74c-1.678-.51-3.386-.927-5.088-1.358a7.919,7.919,0,0,0-1.8-.243c-4.532-.082-9.069-.341-13.6-.17-2.009.076-3.951.418-5.926.648-1.727.2-3.459.366-5.177.624-2.053.308-4.093.7-6.139,1.05a.629.629,0,0,1-.438-.064C92.252,229.174,92.812,228.693,93.391,228.237Zm-3.087,18.4c.49-.773.89-1.353,1.233-1.964a.907.907,0,0,1,.876-.528c.994-.018,1.987-.126,2.98-.147q6.023-.126,12.046-.217c.239,0,.48.043.83.076a7.021,7.021,0,0,1-.214,1.024,13.5,13.5,0,0,0-.558,1.239.742.742,0,0,1-.837.653c-1.555.02-3.109.117-4.664.11-3.174-.014-6.347-.07-9.521-.122C91.772,246.754,91.068,246.687,90.3,246.642Zm43.085-2.25a18.483,18.483,0,0,0-1.424,3.716c-.087.581-.172,1.166-.306,1.737-.157.668-.476.614-1.147.738a4.55,4.55,0,0,1-1.062.188,15.149,15.149,0,0,1-4.232.236c-1.582-.1-4.177-.129-5.763-.137q-4.9-.023-9.792,0c-2.3.012-4.607.089-6.911.13-.06,0-.121,0-.182,0a.441.441,0,0,1-.329-.711.373.373,0,0,0-.307-.6c-2.657.055-5.177.1-7.7.165a1.666,1.666,0,0,1-1.378-.307c3.459-.111,6.747-.258,10.037-.312,3.83-.063,7.659.019,11.484.3,2.048.148,4.107.15,6.16.228.466.018.931.123,1.394.105s.914-.045,1.388-.077h0a40.729,40.729,0,0,1,6.4-.062,16.107,16.107,0,0,0-6.06-1.589l-4.422-.719,0-.187a6.043,6.043,0,0,0,2.379-.877,27.4,27.4,0,0,1,4.825.4,12.95,12.95,0,0,0-5.8-1.595l0-.016,4.751-.29a27.362,27.362,0,0,1,4.453.4,12.882,12.882,0,0,0-3.664-1.338c.206-.031.38-.11.352-.457a3.639,3.639,0,0,1,.45-.03c1.4.073,2.8.142,4.194.232.773.05,1.542.14,2.428.223C133.5,244.115,133.441,244.251,133.388,244.392Zm2.622,9.948a1.47,1.47,0,0,1-.132.282.293.293,0,0,1-.5.017l-.58-.907a.5.5,0,0,1,.224-.737,1.026,1.026,0,0,1,1.042.151C136.461,253.464,136.135,253.944,136.01,254.34Zm6.824-3.278a17.048,17.048,0,0,0-.129,1.712c-1.8.412-3.593-.2-5.42-.007,0-.841.7-1.8-.352-2.541-.067.122-.137.193-.144.269-.1,1.154-.217,1.264-1.353,1.252-1.083-.011-1.259-.182-1.275-1.231a15.5,15.5,0,0,1,.9-5.657c.2-.544.447-.664.848-.277a8.4,8.4,0,0,1,.882,1.215c.7-.584-.412-1.207-.039-1.735a8.144,8.144,0,0,0-1.282-.629,15.766,15.766,0,0,0-2.3-.508c-.908-.126-1.829-.159-2.86-.241.626-.668,1.128-1.19,1.858-.411.028.03.106.023.159.018.592-.06,1.184-.123,1.831-.191a2.344,2.344,0,0,0-1.323-.386c-2.736-.388-5.475-.765-8.218-1.1-1.419-.173-2.851-.239-4.273-.386-.382-.04-.746-.228-1.127-.3a5.4,5.4,0,0,0-1.014-.086c-6.422-.011-12.845,0-19.268-.029-2.117-.008-4.233-.15-6.349-.142-1.208,0-2.414.21-3.623.282-.963.057-1.93.046-2.894.073-.41.012-.554-.206-.541-.577.011-.341,0-.686.039-1.024q.263-2.071.558-4.138a.845.845,0,0,1,1.037-.668,3.3,3.3,0,0,1,.962.34,5.752,5.752,0,0,1,2.424,2.515c.349.693.653,1.453-.1,2.125,1.2.624,2.046-.574,1.807-1.552a7.112,7.112,0,0,0-1.366-2.616c-.17-.223-.326-.455-.5-.713a.38.38,0,0,1,.267-.586c1.828-.251,3.54-.484,5.252-.723A23.639,23.639,0,0,0,98.475,232a2.531,2.531,0,0,0,1.027-.741,2.085,2.085,0,0,1,1.845-.7,2.263,2.263,0,0,1,1.028.357,2.058,2.058,0,0,0,1.591.364c1.016-.12,2.026-.292,3.042-.414,1.048-.125,2.1-.285,3.151-.308,2.431-.053,4.863-.033,7.295-.043.339,0,.678,0,1.017,0l.072.2a12.147,12.147,0,0,1-1.6.782,7.862,7.862,0,0,0-4.064,3.4,15.029,15.029,0,0,0-1.318,2.491,1.6,1.6,0,0,0,.38-.251c.718-.858,1.44-1.713,2.129-2.594a7.582,7.582,0,0,1,3.831-2.519,24.259,24.259,0,0,1,7.942-.73,1.345,1.345,0,0,1,1.323,1.42,3.449,3.449,0,0,1-2.974,3.489,34.216,34.216,0,0,1-5.291,1.026,35.655,35.655,0,0,0-4.065.6,9.487,9.487,0,0,0,1.429.171,28.68,28.68,0,0,0,3.909-.222c2.015-.333,4.014-.786,5.992-1.3a5.662,5.662,0,0,0,3.03-1.735.964.964,0,0,1,.732-.269c.617.067,1.236.143,1.846.258a35.857,35.857,0,0,0,13.8,15.874.89.89,0,0,1-.492-.248A1.477,1.477,0,0,0,142.834,251.062Zm6.33,1.919c-.066.162-.143.319-.246.549-.106-.4-.184-.8-.248-1.2q.313.155.63.3C149.255,252.751,149.211,252.867,149.164,252.981Zm-1.281-14.872a8.016,8.016,0,0,0-2.81.091,4.57,4.57,0,0,0-2.481,1.407,4.185,4.185,0,0,1,2.241-2.118,7.716,7.716,0,0,1,3.132-.581,46.316,46.316,0,0,1,5.967,1.049,9.777,9.777,0,0,0,2.779.064c.944-.1,1.914-.307,2.922-.464a12.291,12.291,0,0,1,3.111-.157,5.376,5.376,0,0,1,2.886,1.085,6.405,6.405,0,0,0-2.893-.331,15.337,15.337,0,0,0-2.849.583l-.119.033-7.654.373A40.6,40.6,0,0,0,147.883,238.109Zm21.187,10.424c-.107.031-.211.069-.316.107a14.289,14.289,0,0,0-1.345.594,8.13,8.13,0,0,1-1.91.7,4.714,4.714,0,0,1-1.11.078,7.284,7.284,0,0,1-1.047-.142c-.664-.144-1.262-.336-1.828-.473-.122-.03-.244-.055-.368-.079a8.562,8.562,0,0,0-1.342-.151,10.1,10.1,0,0,0-3.6.589,6.039,6.039,0,0,1,3.519-1.789,6.9,6.9,0,0,1,2.069,0c.677.1,1.292.28,1.867.4a4.97,4.97,0,0,0,1.611.127,11.639,11.639,0,0,0,1.719-.39,7.152,7.152,0,0,1,1.986-.317,3.728,3.728,0,0,1,1.023.16,2.212,2.212,0,0,1,.865.508h0A3.229,3.229,0,0,0,169.07,248.533Zm4.875-5.836a12.877,12.877,0,0,1-2.351-.67l-.35-.124a6.788,6.788,0,0,0-2.465-.514,2.99,2.99,0,0,0-2.311.94h0a2.361,2.361,0,0,1,.873-1.1,3.779,3.779,0,0,1,1.342-.581,5.348,5.348,0,0,1,1.471-.111,9.463,9.463,0,0,1,1.415.21,22.821,22.821,0,0,0,2.56.512,7.722,7.722,0,0,0,2.432-.205c.826-.186,1.661-.46,2.525-.73a17.446,17.446,0,0,1,2.714-.678,8.139,8.139,0,0,1,2.865.063,4.245,4.245,0,0,1,2.416,1.409,4.889,4.889,0,0,0-2.509-.661,9.09,9.09,0,0,0-2.528.371c-.677.187-1.355.442-2.048.707a22.66,22.66,0,0,1-3.1,1.016A8,8,0,0,1,173.945,242.7Zm5.821,10.284c-.047-.114-.091-.229-.136-.345q.32-.15.637-.307c-.065.4-.149.8-.254,1.2C179.909,253.3,179.832,253.143,179.766,252.981Zm14.367.751-.58.907a.292.292,0,0,1-.5-.017,1.473,1.473,0,0,1-.132-.282c-.125-.4-.451-.876-.053-1.194a1.026,1.026,0,0,1,1.042-.151A.5.5,0,0,1,194.133,253.731Zm40.56-3.883c-2.519-.06-5.038-.11-7.7-.165a.373.373,0,0,0-.307.6.441.441,0,0,1-.329.711c-.062,0-.122,0-.182,0-2.3-.04-4.607-.118-6.911-.13q-4.9-.026-9.792,0c-1.585.008-4.181.033-5.763.137a15.149,15.149,0,0,1-4.232-.236,4.555,4.555,0,0,1-1.062-.188c-.671-.124-.991-.07-1.147-.738-.134-.572-.219-1.156-.306-1.737a18.509,18.509,0,0,0-1.424-3.716c-.053-.14-.117-.277-.221-.522.886-.082,1.656-.173,2.428-.223,1.4-.091,2.8-.159,4.194-.232a3.635,3.635,0,0,1,.45.03c-.029.347.146.426.352.457a12.885,12.885,0,0,0-3.664,1.338,27.363,27.363,0,0,1,4.453-.4l4.751.29,0,.016a12.95,12.95,0,0,0-5.8,1.595,27.4,27.4,0,0,1,4.825-.4,6.043,6.043,0,0,0,2.379.877l0,.187-4.422.719a16.107,16.107,0,0,0-6.06,1.589,40.729,40.729,0,0,1,6.4.062h0c.473.032.932.06,1.387.077s.928-.088,1.394-.105c2.054-.078,4.112-.08,6.16-.228,3.825-.277,7.654-.359,11.484-.3,3.29.054,6.578.2,10.037.312A1.666,1.666,0,0,1,234.693,249.849Zm1.761-3.083c-3.173.052-6.347.109-9.521.122-1.554.007-3.109-.09-4.664-.11a.742.742,0,0,1-.837-.653,13.4,13.4,0,0,0-.558-1.239,7.024,7.024,0,0,1-.214-1.024c.351-.034.591-.08.83-.076q6.023.1,12.046.217c.994.021,1.986.129,2.98.147a.907.907,0,0,1,.876.528c.343.611.743,1.191,1.233,1.964C237.862,246.687,237.158,246.754,236.454,246.766Zm6.411-6.74c-.965-.027-1.932-.016-2.895-.073-1.209-.072-2.415-.278-3.623-.282-2.116-.008-4.232.134-6.349.142-6.422.026-12.845.018-19.268.029a5.4,5.4,0,0,0-1.014.086c-.381.074-.745.262-1.127.3-1.423.148-2.855.213-4.274.386-2.743.335-5.482.712-8.218,1.1a2.344,2.344,0,0,0-1.323.386c.647.068,1.239.131,1.831.191.053.005.131.012.159-.018.73-.779,1.232-.257,1.858.411-1.031.082-1.952.115-2.86.241a15.771,15.771,0,0,0-2.3.508,8.145,8.145,0,0,0-1.282.629c.373.528-.734,1.151-.039,1.735a8.4,8.4,0,0,1,.882-1.215c.4-.387.647-.267.848.277a15.5,15.5,0,0,1,.9,5.657c-.016,1.048-.192,1.219-1.275,1.231-1.136.012-1.253-.1-1.353-1.252-.007-.076-.077-.147-.144-.269-1.047.741-.349,1.7-.352,2.541-1.828-.2-3.619.419-5.42.007a17.035,17.035,0,0,0-.129-1.712,1.477,1.477,0,0,0-2.251-.7.89.89,0,0,1-.492.248,35.854,35.854,0,0,0,13.8-15.88c.609-.114,1.229-.185,1.844-.252a.964.964,0,0,1,.732.269,5.662,5.662,0,0,0,3.03,1.735c1.978.51,3.977.963,5.992,1.3a28.683,28.683,0,0,0,3.909.222,9.487,9.487,0,0,0,1.429-.171,35.655,35.655,0,0,0-4.065-.6,34.217,34.217,0,0,1-5.291-1.026,3.449,3.449,0,0,1-2.974-3.489,1.345,1.345,0,0,1,1.323-1.42,24.259,24.259,0,0,1,7.942.73,7.581,7.581,0,0,1,3.831,2.519c.689.881,1.411,1.736,2.129,2.594a1.6,1.6,0,0,0,.38.251,15.03,15.03,0,0,0-1.318-2.491,7.862,7.862,0,0,0-4.064-3.4,12.169,12.169,0,0,1-1.6-.782l.072-.2c.339,0,.678,0,1.018,0,2.432.009,4.864-.011,7.294.043,1.052.023,2.1.182,3.151.308,1.016.121,2.026.294,3.042.414a2.057,2.057,0,0,0,1.591-.364,2.263,2.263,0,0,1,1.028-.357,2.085,2.085,0,0,1,1.845.7,2.531,2.531,0,0,0,1.027.741,23.64,23.64,0,0,0,2.572.408c1.712.239,3.424.472,5.252.723a.38.38,0,0,1,.267.586c-.172.257-.328.49-.5.713a7.111,7.111,0,0,0-1.366,2.616c-.239.978.6,2.176,1.807,1.552-.756-.672-.453-1.432-.1-2.125a5.752,5.752,0,0,1,2.424-2.515,3.3,3.3,0,0,1,.962-.34.845.845,0,0,1,1.037.668q.291,2.067.559,4.138c.043.338.028.682.039,1.024C243.418,239.82,243.275,240.037,242.865,240.025Z" transform="translate(-83.297 -179.552)" fill="#fff"/>
      <path id="Path_112" data-name="Path 112" d="M447.478,308.574c-1.345-.181-2.607-.353-3.87-.521-.245-.033-.5-.018-.738-.074a1.212,1.212,0,0,0-1.348.593,6.114,6.114,0,0,0-.348.656,1.946,1.946,0,0,1-1.713,1.077,2.231,2.231,0,0,1-2.3-1.224c-.137-.242-.274-.485-.4-.732a1.86,1.86,0,0,0-1.63-1.058c-.739-.052-1.474-.171-2.213-.233-1.3-.108-2.593-.2-3.89-.287-.183-.013-.586-.045-.758-.062-.543-.054-1.08-.054-1.08-.054-.456-.065-.4.292-.32.658a1.062,1.062,0,0,0,.109.256,17.078,17.078,0,0,0,3.392,4.714,2.776,2.776,0,0,0,2.5.955c1.449.122,2.873.189,4.322.313,1.385.119,2.773.236,4.162.269a16.964,16.964,0,0,0,2.964-.177,3.881,3.881,0,0,0,1.573-.688c.97-.685,1.175-1.859,1.631-2.864a8.819,8.819,0,0,0,.336-.919A.463.463,0,0,0,447.478,308.574Z" transform="translate(-294.49 -254.287)" fill="#fff"/>
      <path id="Path_113" data-name="Path 113" d="M455.031,311.147a1.634,1.634,0,0,0,2.628.923.839.839,0,0,0,.268-.689c-.084-.348-1.386-.838-1.746-.709C455.785,310.814,455.4,310.992,455.031,311.147Z" transform="translate(-311.883 -256.754)" fill="#fff"/>
      <path id="Path_114" data-name="Path 114" d="M455.7,304.667c-.017-.209-.142-.534-.285-.575a.781.781,0,0,0-.64.219,2.476,2.476,0,0,0-.722,2.251C455.458,306.285,455.8,305.892,455.7,304.667Z" transform="translate(-311.255 -252.704)" fill="#fff"/>
      <path id="Path_115" data-name="Path 115" d="M460.788,306.8c.35.2.616.047.673-.332a1.909,1.909,0,0,0-1.679-2c.043.413.079.807.127,1.2A1.529,1.529,0,0,0,460.788,306.8Z" transform="translate(-314.811 -252.945)" fill="#fff"/>
      <path id="Path_116" data-name="Path 116" d="M266.35,198.456a25.466,25.466,0,0,0-6.9-4.9c-2.8-1.521-5.718-2.836-8-5.2a49.818,49.818,0,0,0-4.931-4.511,28.828,28.828,0,0,0-8-4.229,9.092,9.092,0,0,1,2.041,7.957l5.778,2.986-.909.5a3.066,3.066,0,0,0-.833-.233,24.565,24.565,0,0,0-10.011,2.141c-6.506,2.981-10.658,8.108-13.19,14.654-.424,1.1-.833,1.679-2.18,1.781-4.5.341-8.105,4.383-9.133,8.775,3.654-2.144,7.308-4.079,11.66-2.817s6.4,4.783,8.19,8.705c.933-4.107-.14-10.186-3.723-12.226-.367,1.648-.324,1.617.588,2.9a27.076,27.076,0,0,1,1.445,2.543,32.876,32.876,0,0,0-3.443-2.859,2.269,2.269,0,0,1-1.264-2.8c.045-.234.045-.477.1-.709,1.792-8,6.146-14.039,13.649-17.594a18.622,18.622,0,0,1,7.792-2.1c-.29.128-.571.279-.87.381a27.623,27.623,0,0,0-11.951,7.914,24.679,24.679,0,0,0-4.571,7.307c9.007-5.978,18.268-5.135,27.745-1.756l1.683-2.43a9.722,9.722,0,0,1-.595,2.7c-.276.713-.083,1.012.553,1.407a61.043,61.043,0,0,1,5.549,3.742,30.584,30.584,0,0,1,8,9.844,6.445,6.445,0,0,0-.008-3.207,11.933,11.933,0,0,1-.517-6.108C270.565,206.342,269.628,202.033,266.35,198.456Z" transform="translate(-161.187 -176.001)" fill="#fff"/>
      <path id="Path_117" data-name="Path 117" d="M282.888,243.1c-.718,1.948-2.3,3.012-3.967,3.991-.708.415-1.45.774-2.2,1.168a3.174,3.174,0,0,0,2.691,2.245,11.72,11.72,0,0,0,3.544-.165c4.105-1.006,7.575-3.282,11.144-5.842a26.942,26.942,0,0,0-10.407-1.865A1.052,1.052,0,0,0,282.888,243.1Z" transform="translate(-202.243 -214.828)" fill="#fff"/>
      <path id="Path_118" data-name="Path 118" d="M271.034,172.144c2.553,2.529,4.887,5.194,5.625,8.889.4-2.686-.131-4.276-2.861-8.553a32.694,32.694,0,0,1,14.347,7.91,5.2,5.2,0,0,0-.744-1.051,32.953,32.953,0,0,0-13.121-8.533,11.37,11.37,0,0,0-3.033-.615c-.954-.079-1.2.444-.716,1.287A3.131,3.131,0,0,0,271.034,172.144Z" transform="translate(-198.285 -170.183)" fill="#fff"/>
      <path id="Path_119" data-name="Path 119" d="M328.84,251.892c-.152.551-.275.995-.419,1.519a25.691,25.691,0,0,1,10.087,8.934,15.815,15.815,0,0,0,1.859,2.481,9.564,9.564,0,0,0,1.935,1.218l.247-.378C339.4,259.753,335.123,254.946,328.84,251.892Z" transform="translate(-234.04 -220.541)" fill="#fff"/>
    </g>
  </g>
</svg>
