<svg xmlns="http://www.w3.org/2000/svg" width="125.914" height="41.718" viewBox="0 0 125.914 41.718"><g transform="translate(-1690 -6372)"><path d="M173.282,187.773a2.38,2.38,0,0,0,2.15-.056.852.852,0,0,0,.446-.688.458.458,0,0,0-.234-.437,1.548,1.548,0,0,0-.73-.129h-.879a2.913,2.913,0,0,1-.356-.022,2.282,2.282,0,0,1-.291-.056,1.3,1.3,0,0,0-.349.366.805.805,0,0,0-.125.424.684.684,0,0,0,.366.6m.192-4.03a.979.979,0,0,0,1.459,0,1.222,1.222,0,0,0,.286-.825,1.174,1.174,0,0,0-.281-.808,1.023,1.023,0,0,0-1.47,0,1.174,1.174,0,0,0-.281.808A1.223,1.223,0,0,0,173.474,183.743Zm2.6,4.475a3.3,3.3,0,0,1-1.868.5,2.91,2.91,0,0,1-1.573-.38,1.212,1.212,0,0,1-.591-1.052,1.179,1.179,0,0,1,.2-.641,2,2,0,0,1,.524-.53,1.006,1.006,0,0,1-.31-.343,1.047,1.047,0,0,1-.122-.506,1.062,1.062,0,0,1,.153-.541,1.45,1.45,0,0,1,.389-.424,1.912,1.912,0,0,1-.468-.613,1.842,1.842,0,0,1,.377-2.112,2.056,2.056,0,0,1,1.42-.536,2.326,2.326,0,0,1,.389.033,1.886,1.886,0,0,1,.344.092h1.818v.783h-.967a1.456,1.456,0,0,1,.224.383,1.631,1.631,0,0,1,.115.6,1.763,1.763,0,0,1-.537,1.313,1.992,1.992,0,0,1-1.387.517,1.832,1.832,0,0,1-.408-.049,1.777,1.777,0,0,1-.345-.118,1.007,1.007,0,0,0-.187.215.593.593,0,0,0-.086.318.4.4,0,0,0,.164.349,1.187,1.187,0,0,0,.673.144H175a2.488,2.488,0,0,1,1.366.3,1.084,1.084,0,0,1,.474.976A1.6,1.6,0,0,1,176.071,188.218Zm-8.4-1.839h-.92v-5.207h.829l.069.688a3.435,3.435,0,0,1,.72-.557,1.948,1.948,0,0,1,.965-.257,1.435,1.435,0,0,1,1.223.532,2.492,2.492,0,0,1,.387,1.517v3.284h-.982V183.21a1.749,1.749,0,0,0-.218-1,.771.771,0,0,0-.682-.3,1.24,1.24,0,0,0-.668.191,3.738,3.738,0,0,0-.662.557v3.718Zm-2.684-6.3a.715.715,0,0,1-.938,0,.613.613,0,0,1,0-.883.726.726,0,0,1,.943,0,.613.613,0,0,1,0,.883Zm-.051,6.3h-.92v-5.207H165v5.207Zm-2.564.065a2.316,2.316,0,0,1-.5.061,1.387,1.387,0,0,1-1.184-.5,2.059,2.059,0,0,1-.332-1.261V182h-.753v-.768l.8-.052.1-1.427h.841v1.423h1.37V182h-1.37v2.762a1.171,1.171,0,0,0,.16.69.644.644,0,0,0,.562.231,1.159,1.159,0,0,0,.276-.042c.1-.026.2-.059.278-.09l.064-.024.2.77-.054.018A4.483,4.483,0,0,1,162.373,186.444Zm-6.465-4.171a1.854,1.854,0,0,0-.451,1.032h2.588a1.748,1.748,0,0,0-.312-1.069,1.069,1.069,0,0,0-.881-.387A1.281,1.281,0,0,0,155.907,182.273Zm2.031,4.072a2.892,2.892,0,0,1-.951.159,2.414,2.414,0,0,1-1.811-.764,2.827,2.827,0,0,1-.688-1.954,2.934,2.934,0,0,1,.658-1.933,2.222,2.222,0,0,1,1.684-.807,1.931,1.931,0,0,1,1.535.655,2.721,2.721,0,0,1,.555,1.792c0,.092,0,.188-.008.278s-.014.161-.024.224l-.009.052h-3.417a1.9,1.9,0,0,0,.485,1.184,1.538,1.538,0,0,0,1.144.46,2.065,2.065,0,0,0,.653-.105,2.6,2.6,0,0,0,.58-.282l.056-.036.362.673-.048.031A3.5,3.5,0,0,1,157.938,186.345Zm-7.211.034h-.909v-7.571h.971v4.968l2.106-2.6h1.113l-1.76,2.106,1.971,3.1H153.13l-1.459-2.4L150.789,185v1.378Zm-3.99,0h-.92v-5.207h.83l.066.827a2.265,2.265,0,0,1,.594-.667,1.411,1.411,0,0,1,.831-.286,1.6,1.6,0,0,1,.3.026,1.236,1.236,0,0,1,.265.084l.046.02-.193.868-.064-.02a1.979,1.979,0,0,0-.223-.06,1.316,1.316,0,0,0-.25-.021,1.025,1.025,0,0,0-.687.295,2.245,2.245,0,0,0-.538.827v3.314Zm-5.493-.888a.915.915,0,0,0,.624.2,1.4,1.4,0,0,0,.662-.168,3.3,3.3,0,0,0,.657-.477V183.73a4.609,4.609,0,0,0-1.683.456.833.833,0,0,0-.474.75A.713.713,0,0,0,141.244,185.491Zm1.3.79a2.156,2.156,0,0,1-.927.223,1.582,1.582,0,0,1-1.123-.417,1.56,1.56,0,0,1,.352-2.419,6,6,0,0,1,2.34-.628,1.513,1.513,0,0,0-.2-.793.868.868,0,0,0-.785-.367,2.188,2.188,0,0,0-.806.165,3.524,3.524,0,0,0-.676.368l-.056.038-.4-.706.049-.031a4.639,4.639,0,0,1,.881-.449,3.277,3.277,0,0,1,1.15-.22,1.689,1.689,0,0,1,1.365.553,2.443,2.443,0,0,1,.465,1.6v3.179h-.828l-.069-.573A3.789,3.789,0,0,1,142.544,186.281Zm-10.075.1h-.919v-5.207h.829l.068.683a3.154,3.154,0,0,1,.676-.551,1.741,1.741,0,0,1,.883-.257,1.557,1.557,0,0,1,.949.271,1.443,1.443,0,0,1,.476.649,3.971,3.971,0,0,1,.749-.639,1.68,1.68,0,0,1,.9-.28,1.438,1.438,0,0,1,1.208.523,2.458,2.458,0,0,1,.4,1.527v3.284h-.981V183.21a1.761,1.761,0,0,0-.22-1,.746.746,0,0,0-.659-.3,1.1,1.1,0,0,0-.578.187,3.131,3.131,0,0,0-.636.56v3.72h-.982V183.21a1.747,1.747,0,0,0-.221-1,.758.758,0,0,0-.669-.3,1.108,1.108,0,0,0-.572.188,3.081,3.081,0,0,0-.642.558v3.72Zm-5.283.065a2.316,2.316,0,0,1-.5.061,1.388,1.388,0,0,1-1.184-.5,2.059,2.059,0,0,1-.332-1.261V182h-.753v-.768l.8-.052.105-1.427h.841v1.423h1.37V182h-1.37v2.762a1.171,1.171,0,0,0,.16.69.644.644,0,0,0,.562.231,1.166,1.166,0,0,0,.276-.042c.1-.026.2-.059.278-.09l.064-.024.2.77-.054.018A4.491,4.491,0,0,1,127.187,186.444Zm-6.465-4.171a1.855,1.855,0,0,0-.452,1.032h2.588a1.745,1.745,0,0,0-.312-1.069,1.069,1.069,0,0,0-.881-.387A1.28,1.28,0,0,0,120.722,182.273Zm2.031,4.072a2.891,2.891,0,0,1-.951.159,2.413,2.413,0,0,1-1.811-.764,2.825,2.825,0,0,1-.688-1.954,2.936,2.936,0,0,1,.658-1.933,2.223,2.223,0,0,1,1.684-.807,1.931,1.931,0,0,1,1.535.655,2.719,2.719,0,0,1,.556,1.792c0,.092,0,.188-.009.278s-.014.161-.024.224l-.009.052h-3.417a1.9,1.9,0,0,0,.485,1.184,1.539,1.539,0,0,0,1.144.46,2.063,2.063,0,0,0,.653-.105,2.6,2.6,0,0,0,.58-.282l.056-.036.362.673-.048.031A3.5,3.5,0,0,1,122.752,186.345Zm-8.142.034h-.92v-5.207h.829l.069.688a3.444,3.444,0,0,1,.72-.557,1.949,1.949,0,0,1,.965-.257,1.435,1.435,0,0,1,1.223.532,2.492,2.492,0,0,1,.387,1.517v3.284H116.9V183.21a1.753,1.753,0,0,0-.218-1,.771.771,0,0,0-.682-.3,1.24,1.24,0,0,0-.668.191,3.736,3.736,0,0,0-.662.557v3.718Zm-4,0h-.92v-5.207h.83l.065.827a2.272,2.272,0,0,1,.594-.667,1.411,1.411,0,0,1,.831-.286,1.6,1.6,0,0,1,.3.026,1.243,1.243,0,0,1,.265.084l.047.02-.193.868-.064-.02a1.98,1.98,0,0,0-.223-.06,1.313,1.313,0,0,0-.25-.021,1.025,1.025,0,0,0-.687.295,2.245,2.245,0,0,0-.538.827v3.314Zm-5.436-4.106a1.851,1.851,0,0,0-.451,1.032h2.588a1.751,1.751,0,0,0-.312-1.069,1.069,1.069,0,0,0-.881-.387A1.281,1.281,0,0,0,105.173,182.273Zm2.031,4.072a2.894,2.894,0,0,1-.951.159,2.414,2.414,0,0,1-1.811-.764,2.827,2.827,0,0,1-.688-1.954,2.934,2.934,0,0,1,.658-1.933,2.222,2.222,0,0,1,1.684-.807,1.932,1.932,0,0,1,1.535.655,2.721,2.721,0,0,1,.555,1.792c0,.092,0,.188-.009.278a2.155,2.155,0,0,1-.024.224l-.009.052h-3.417a1.9,1.9,0,0,0,.485,1.184,1.538,1.538,0,0,0,1.144.46,2.06,2.06,0,0,0,.652-.105,2.616,2.616,0,0,0,.58-.282l.056-.036.362.673-.048.031A3.5,3.5,0,0,1,107.2,186.345Zm-4.676.1a2.316,2.316,0,0,1-.5.061,1.388,1.388,0,0,1-1.184-.5,2.061,2.061,0,0,1-.332-1.261V182h-.753v-.768l.8-.052.1-1.427h.841v1.423h1.37V182h-1.37v2.762a1.171,1.171,0,0,0,.16.69.644.644,0,0,0,.562.231,1.162,1.162,0,0,0,.276-.042c.1-.026.2-.059.278-.09l.064-.024.2.77-.054.018A4.49,4.49,0,0,1,102.528,186.444Zm-7.122-.065h-.919v-5.207h.829l.069.688a3.447,3.447,0,0,1,.72-.557,1.947,1.947,0,0,1,.965-.257,1.435,1.435,0,0,1,1.223.532,2.492,2.492,0,0,1,.387,1.517v3.284H97.7V183.21a1.749,1.749,0,0,0-.218-1,.77.77,0,0,0-.682-.3,1.238,1.238,0,0,0-.667.191,3.753,3.753,0,0,0-.662.557v3.718Zm-2.58-6.3a.715.715,0,0,1-.938,0,.613.613,0,0,1,0-.883.726.726,0,0,1,.943,0,.613.613,0,0,1,0,.883Zm-.051,6.3h-.92v-5.207h.982v5.207Zm-6.03-21.534a5.511,5.511,0,1,0,1.614,3.9A5.494,5.494,0,0,0,86.746,164.845Zm-3.9-3.22a7.117,7.117,0,1,1-5.033,2.085A7.1,7.1,0,0,1,82.849,161.624Zm-5.658-5.54a9.206,9.206,0,0,1,7.312,3.6,9.088,9.088,0,0,0-8.995,14.688,9.223,9.223,0,0,1,1.682-18.291ZM72.622,147a15.528,15.528,0,0,1,15.487,14.408,9.116,9.116,0,0,0-1.369-.894A11.97,11.97,0,1,0,77.276,176a9.111,9.111,0,0,0,1.435.822A15.529,15.529,0,1,1,72.622,147Zm29.609,16.519a.8.8,0,0,1,1.606,0v11.611a.8.8,0,0,1-1.606,0Zm53.65,9.221a.8.8,0,1,1,1.362.841,4.963,4.963,0,1,1-4.222-7.571,4.655,4.655,0,0,1,2.5.772,3.412,3.412,0,0,1,1.5,1.972.8.8,0,0,1-.39.884l-4.81,2.68a.8.8,0,0,1-.778-1.4l4.15-2.311a2.479,2.479,0,0,0-.556-.489,3.011,3.011,0,0,0-1.617-.5,3.36,3.36,0,1,0,2.861,5.124Zm-22.22,2.482a.8.8,0,1,1-1.593-.182l1.422-12.06a1.507,1.507,0,0,1,2.938-.264l3.134,10.3,3.134-10.3a1.506,1.506,0,0,1,2.938.264l1.422,12.06a.8.8,0,1,1-1.593.182l-1.369-11.6L140.661,174.9a1.148,1.148,0,0,1-2.191.02c-1.131-3.771-2.294-7.536-3.44-11.3Zm49.348-.091a.8.8,0,1,1-1.606,0v-4.216a3.337,3.337,0,0,0-.92-2.367,3.183,3.183,0,0,0-2.3-.932,3.359,3.359,0,0,0,0,6.718,3.231,3.231,0,0,0,1.421-.315.8.8,0,1,1,.678,1.456,4.965,4.965,0,1,1-2.1-9.464,4.768,4.768,0,0,1,3.445,1.415,4.928,4.928,0,0,1,1.384,3.49Zm-13-8.3a.8.8,0,0,1,1.606,0v8.3a.8.8,0,1,1-1.606,0Zm0-3.312a.8.8,0,0,1,1.606,0v.693a.8.8,0,1,1-1.606,0Zm-3.524,0a.8.8,0,0,1,1.606,0v7.515a4.927,4.927,0,0,1-1.384,3.49,4.768,4.768,0,0,1-3.445,1.415,4.962,4.962,0,1,1,2.1-9.464.8.8,0,1,1-.677,1.456,3.236,3.236,0,0,0-1.421-.315,3.359,3.359,0,1,0,0,6.718,3.183,3.183,0,0,0,2.3-.932,3.337,3.337,0,0,0,.92-2.367Zm-60.3,3.312a.8.8,0,0,1,1.609,0v8.3a.8.8,0,1,1-1.609,0Zm21.543,5.909a.8.8,0,1,1,1.362.841,4.964,4.964,0,1,1-4.223-7.571,4.654,4.654,0,0,1,2.5.772,3.412,3.412,0,0,1,1.5,1.972.8.8,0,0,1-.389.884l-4.81,2.68a.8.8,0,1,1-.778-1.4l4.149-2.311a2.477,2.477,0,0,0-.555-.489,3.013,3.013,0,0,0-1.617-.5,3.36,3.36,0,1,0,2.861,5.124Zm-9.175,2.391a.8.8,0,1,1-1.606,0v-5.306a2.008,2.008,0,0,0-.768-1.524,3.279,3.279,0,0,0-4.047,0,2.011,2.011,0,0,0-.77,1.523v5.306a.8.8,0,1,1-1.606,0v-5.306a3.594,3.594,0,0,1,1.347-2.747,4.848,4.848,0,0,1,6.1,0,3.591,3.591,0,0,1,1.345,2.747Zm-12.334-11.611a.772.772,0,1,1,1.542,0v.693a.772.772,0,1,1-1.542,0Zm-5.971,11.611a.8.8,0,1,1-1.606,0v-5.058a2.329,2.329,0,0,0-.793-1.719,3.037,3.037,0,0,0-4,0,2.329,2.329,0,0,0-.793,1.719v5.058a.8.8,0,1,1-1.606,0v-5.058a3.923,3.923,0,0,1,1.32-2.9,4.632,4.632,0,0,1,6.158,0,3.922,3.922,0,0,1,1.32,2.9Z" transform="translate(1632.905 6224.996)" fill="#fbfbff"/></g></svg>