<svg xmlns="http://www.w3.org/2000/svg" width="18" height="18" viewBox="0 0 18 18">
  <g id="kivstar" transform="translate(0 0)">
    <g id="logo" transform="translate(0 0)">
      <path id="Path_43" data-name="Path 43" d="M649.752,335.158h0a1.286,1.286,0,0,1,1.282,1.282v4.766a1.286,1.286,0,0,1-1.282,1.282h0a1.286,1.286,0,0,1-1.282-1.282V336.44a1.286,1.286,0,0,1,1.282-1.282Z" transform="translate(-640.752 -335.158)" fill="#0086d4" fill-rule="evenodd"/>
      <path id="Path_44" data-name="Path 44" d="M617.831,358.352h0a1.286,1.286,0,0,1,1.615-.823L623.978,359a1.286,1.286,0,0,1,.823,1.615h0a1.285,1.285,0,0,1-1.615.823l-4.533-1.473a1.286,1.286,0,0,1-.823-1.615Z" transform="translate(-617.768 -351.595)" fill="#0086d4" fill-rule="evenodd"/>
      <path id="Path_45" data-name="Path 45" d="M630.027,385.746h0a1.286,1.286,0,0,1-.284-1.79l2.8-3.856a1.285,1.285,0,0,1,1.791-.284h0a1.286,1.286,0,0,1,.284,1.79l-2.8,3.856a1.286,1.286,0,0,1-1.791.284Z" transform="translate(-626.607 -367.99)" fill="#0086d4" fill-rule="evenodd"/>
      <path id="Path_46" data-name="Path 46" d="M662.121,385.746h0a1.286,1.286,0,0,1-1.791-.284l-2.8-3.856a1.286,1.286,0,0,1,.284-1.791h0a1.286,1.286,0,0,1,1.791.284l2.8,3.856a1.286,1.286,0,0,1-.284,1.791Z" transform="translate(-647.541 -367.989)" fill="#0086d4" fill-rule="evenodd"/>
      <path id="Path_47" data-name="Path 47" d="M669.76,358.351h0a1.286,1.286,0,0,1-.823,1.615l-4.532,1.473a1.286,1.286,0,0,1-1.616-.823h0a1.286,1.286,0,0,1,.823-1.615l4.532-1.473a1.286,1.286,0,0,1,1.616.823Z" transform="translate(-651.822 -351.594)" fill="#0086d4" fill-rule="evenodd"/>
    </g>
  </g>
</svg>
