<svg xmlns="http://www.w3.org/2000/svg" width="18" height="18" viewBox="0 0 18 18">
  <g id="lifecell" transform="translate(0 0)">
    <path id="logo" d="M54.226,79.185a8.984,8.984,0,1,1,6.19,8.555A10.5,10.5,0,0,1,66.5,79.71a2,2,0,1,0-.486-1.312,14.071,14.071,0,0,0-8.786,7.5,8.976,8.976,0,0,1-1.375-1.55,10.355,10.355,0,0,1,4.362-8.256,2,2,0,1,0-.506-1.329c0,.058,0,.117.009.172a9.977,9.977,0,0,0-5.486,4.6c-.006-.114-.006-.232-.006-.349" transform="translate(-54.226 -70.185)" fill="#ffc10e"/>
  </g>
</svg>
