<svg xmlns="http://www.w3.org/2000/svg" width="40" height="43" viewBox="0 0 40 43">
  <g id="ico" transform="translate(-219 -65)">
    <path id="Path_89" data-name="Path 89" d="M254.751,98.433a36.953,36.953,0,0,0-7.943-1.669q.456-.455.9-.922a24.942,24.942,0,0,0,5.733-8.909c2.237-6.474.039-14.493-5.111-18.652A14.976,14.976,0,0,0,238.938,65h0a14.976,14.976,0,0,0-9.39,3.281,16.516,16.516,0,0,0-5.289,8.152,16.951,16.951,0,0,0-.062,9.67c1.23,4,3.872,7.516,6.979,10.662a36.928,36.928,0,0,0-7.919,1.664c-2.825,1-4.257,2.262-4.257,3.739,0,1.8,2.1,3.264,6.246,4.343a64.307,64.307,0,0,0,27.508,0c4.144-1.079,6.246-2.54,6.246-4.343,0-1.475-1.429-2.732-4.249-3.736Zm-28.84-21.526a14.809,14.809,0,0,1,4.728-7.316,13.335,13.335,0,0,1,16.6,0,14.719,14.719,0,0,1,4.782,7.7,15.793,15.793,0,0,1-.208,9.1c-2.155,6.237-7.823,10.887-12.873,14.985-5.352-4.348-11.169-9.5-13.095-15.761a15.265,15.265,0,0,1,.068-8.706Zm26.4,27.968a62.609,62.609,0,0,1-26.628,0c-3.92-1.021-4.966-2.181-4.966-2.706,0-1.125,3.829-3.116,12.042-3.864,1.712,1.6,3.509,3.1,5.254,4.514a1.2,1.2,0,0,0,1.846,0c1.7-1.379,3.551-2.882,5.335-4.517,8.242.744,12.085,2.741,12.085,3.867,0,.525-1.046,1.685-4.966,2.706Zm0,0" transform="translate(0 0)" fill="#fbfbff"/>
    <path id="Path_90" data-name="Path 90" d="M372.158,154.8c.984-.479.264-2.062-.722-1.583a9.029,9.029,0,1,1,4.876-8.066,9.172,9.172,0,0,1-.691,3.514.851.851,0,0,0,1.558.686,10.957,10.957,0,0,0,.827-4.2,10.47,10.47,0,1,0-5.847,9.649Zm0,0" transform="translate(-128.625 -64.6)" fill="#fbfbff"/>
    <path id="Path_91" data-name="Path 91" d="M602.871,372.7a.874.874,0,1,0,.873.913.884.884,0,0,0-.873-.913Zm0,0" transform="translate(-356.819 -287.007)" fill="#fbfbff"/>
    <path id="Path_92" data-name="Path 92" d="M431,215.8a2.437,2.437,0,0,0-3.414.443l-3.719,4.827-.98-.751a2.434,2.434,0,0,0-2.962,3.863l2.907,2.229a2.456,2.456,0,0,0,3.409-.446l5.2-6.751A2.436,2.436,0,0,0,431,215.8Zm-.942,2.346-5.2,6.751a.69.69,0,0,1-.96.126l-2.908-2.229a.685.685,0,0,1,.834-1.087l1.673,1.282a.874.874,0,0,0,1.224-.16l4.252-5.518a.685.685,0,1,1,1.086.836Zm0,0" transform="translate(-186.403 -140.286)" fill="#fbfbff"/>
  </g>
</svg>
