<svg xmlns="http://www.w3.org/2000/svg" width="39" height="39" viewBox="0 0 39 39">
  <g id="ico" transform="translate(0 -3)">
    <path id="Path_120" data-name="Path 120" d="M303.2,258.835a1.6,1.6,0,0,1,1.7,1.472.773.773,0,1,0,1.546,0,3.076,3.076,0,0,0-2.474-2.931v-.4a.773.773,0,1,0-1.546,0v.4a3.076,3.076,0,0,0-2.474,2.931,3.142,3.142,0,0,0,3.247,3.018,1.487,1.487,0,1,1-1.7,1.472.773.773,0,0,0-1.546,0,3.076,3.076,0,0,0,2.474,2.931v.334a.773.773,0,0,0,1.546,0v-.334a3.076,3.076,0,0,0,2.474-2.931,3.142,3.142,0,0,0-3.247-3.018,1.487,1.487,0,1,1,0-2.944Z" transform="translate(-277.172 -233.713)" fill="#fbfbff"/>
    <path id="Path_121" data-name="Path 121" d="M389.146,224.5a10.072,10.072,0,0,0-4.114-3.641.773.773,0,1,0-.67,1.393,8.51,8.51,0,0,1,3.833,11.656.773.773,0,1,0,1.365.726,10.06,10.06,0,0,0-.414-10.135Z" transform="translate(-354.825 -201.027)" fill="#fbfbff"/>
    <path id="Path_122" data-name="Path 122" d="M347.773,210.547h.048a.773.773,0,0,0,0-1.546h-.052a.773.773,0,1,0,0,1.546Z" transform="translate(-320.585 -190.125)" fill="#fbfbff"/>
    <path id="Path_123" data-name="Path 123" d="M218.372,285.5a8.51,8.51,0,0,1-3.833-11.656.773.773,0,1,0-1.365-.726A10.053,10.053,0,0,0,217.7,286.9a.773.773,0,1,0,.67-1.393Z" transform="translate(-195.903 -248.976)" fill="#fbfbff"/>
    <path id="Path_124" data-name="Path 124" d="M317.2,449h-.045a.773.773,0,1,0-.007,1.546h.052a.773.773,0,1,0,0-1.546Z" transform="translate(-292.294 -411.637)" fill="#fbfbff"/>
    <path id="Path_125" data-name="Path 125" d="M29.51,16.27a3.551,3.551,0,0,0-.338-.63h1.983a3.546,3.546,0,0,0,0-7.091h-6.1A3.551,3.551,0,0,0,22.166,3H3.5a3.546,3.546,0,0,0,0,7.091H9.6a3.57,3.57,0,0,0,0,4.008H7.617a3.552,3.552,0,0,0-2.177,6.32,3.565,3.565,0,0,0,0,5.549,3.565,3.565,0,0,0,0,5.549,3.552,3.552,0,0,0,2.177,6.32h8.977A12.846,12.846,0,0,0,26.051,42,13.122,13.122,0,0,0,29.51,16.27ZM1.523,6.545a2,2,0,0,1,1.98-2H22.166a2,2,0,0,1,0,4.008H3.5A2,2,0,0,1,1.523,6.545Zm8.988,5.549a2,2,0,0,1,1.98-2H31.154a2,2,0,0,1,0,4.008H12.492A2,2,0,0,1,10.512,12.095ZM5.637,17.644a2,2,0,0,1,1.98-2H26.279a1.96,1.96,0,0,1,.864.2c-.36-.031-.725-.047-1.093-.047a12.834,12.834,0,0,0-9.163,3.854H7.617A2,2,0,0,1,5.637,17.644Zm0,5.549a2,2,0,0,1,1.98-2h7.969A13.128,13.128,0,0,0,13.628,25.2H7.617A2,2,0,0,1,5.637,23.194Zm0,5.549a2,2,0,0,1,1.98-2h5.661a13.267,13.267,0,0,0-.047,4.008H7.617A2,2,0,0,1,5.637,28.743ZM7.617,36.3a2,2,0,0,1,0-4.008h5.925A13.123,13.123,0,0,0,15.37,36.3Zm18.434,4.162A11.562,11.562,0,1,1,37.477,28.9,11.507,11.507,0,0,1,26.051,40.458Z" transform="translate(0 0)" fill="#fbfbff"/>
  </g>
</svg>
